<?xml version="1.0" standalone="no"?>
<!DOCTYPE svg PUBLIC "-//W3C//DTD SVG 1.1//EN" "http://www.w3.org/Graphics/SVG/1.1/DTD/svg11.dtd" >
<svg xmlns="http://www.w3.org/2000/svg" xmlns:xlink="http://www.w3.org/1999/xlink" version="1.1">
<metadata>
Created by FontForge 20170731 at Wed Mar  8 01:26:11 2023
 By Aleksey,,,
(C)1992 The Font Company Inc., ALL Rights Reserved
</metadata>
<defs>
<font id="Abbey-Rgl" horiz-adv-x="1024" >
  <font-face 
    font-family="Abbey"
    font-weight="500"
    font-stretch="normal"
    units-per-em="2048"
    panose-1="0 0 0 0 0 0 0 0 0 0"
    ascent="1638"
    descent="-410"
    x-height="844"
    cap-height="1356"
    bbox="-256 -569 2419 1815"
    underline-thickness="40"
    underline-position="-286"
    unicode-range="U+0020-2122"
  />
<missing-glyph horiz-adv-x="0" 
 />
    <glyph glyph-name=".notdef" horiz-adv-x="0" 
 />
    <glyph glyph-name=".null" horiz-adv-x="0" 
 />
    <glyph glyph-name="nonmarkingreturn" horiz-adv-x="682" 
 />
    <glyph glyph-name="space" unicode=" " horiz-adv-x="491" 
 />
    <glyph glyph-name="exclam" unicode="!" horiz-adv-x="409" 
d="M201 246q58 0 94.5 -34.5t36.5 -90.5q0 -53 -33 -87t-84 -34q-53 0 -93 36t-40 85q0 51 35.5 88t83.5 37zM125 510l-59 795v10q-1 46 33 70t100 24q77 0 111 -28.5t34 -94.5v-12l-53 -770v-10q0 -91 -78 -91q-46 0 -65 23t-23 84z" />
    <glyph glyph-name="quotedbl" unicode="&#x22;" horiz-adv-x="993" 
d="M735 795h-143l-53 569h247zM401 795h-143l-51 569h246z" />
    <glyph glyph-name="numbersign" unicode="#" horiz-adv-x="1114" 
d="M676 786h-184l-29 -182h184zM1004 604v-170h-209l-70 -434h-174l70 434h-183l-71 -434h-170l67 434h-205v170h232l28 182h-202v172h229l66 406h170l-64 -406h184l64 406h176l-65 -406h180v-172h-205l-31 -182h183z" />
    <glyph glyph-name="dollar" unicode="$" horiz-adv-x="768" 
d="M410 305l-39 -160q35 -12 53 -12q23 0 40 21.5t17 50.5q0 28 -15.5 50t-55.5 50zM362 586l31 147h-24q-34 0 -48 -13t-14 -46q0 -26 11 -43.5t44 -44.5zM424 877l29 129q13 61 53 61q22 0 34.5 -16t12.5 -43q0 -13 -2 -19l-27 -129q68 -25 97.5 -52t29.5 -65
q0 -37 -31 -61.5t-77 -24.5q-17 0 -58 9l-30 -144q98 -38 165.5 -111.5t67.5 -142.5q0 -127 -143 -217q-82 -53 -142 -53q-5 0 -59 4l-49 -190q-9 -36 -19.5 -51t-27.5 -15q-37 0 -37 49q0 9 4 33l29 188q-115 41 -154 69t-39 69q0 30 17 59.5t43 44.5q17 10 34 10
q59 0 142 -67l41 161q-124 57 -183 118.5t-59 135.5q0 51 28.5 92.5t92.5 84.5q63 43 103 59t114 25z" />
    <glyph glyph-name="percent" unicode="%" horiz-adv-x="1665" 
d="M1229 580q-71 0 -112.5 -50t-41.5 -137q0 -114 64.5 -199t150.5 -85q60 0 103 51.5t43 124.5q0 117 -62.5 206t-144.5 89zM399 1245q-71 0 -112 -50t-41 -136q0 -115 64.5 -200t150.5 -85q60 0 102.5 51t42.5 123q0 118 -62.5 207.5t-144.5 89.5zM891 328q15 211 172 299
q61 33 128.5 54t113.5 21q115 0 206 -101.5t91 -227.5q0 -151 -115.5 -264t-267.5 -113q-82 0 -163 55.5t-130 147.5q-14 25 -24.5 64t-10.5 65zM61 993q15 213 172 299q61 33 127.5 53.5t114.5 20.5q115 0 206 -101t91 -229q0 -149 -115.5 -263t-267.5 -114
q-83 0 -163 56.5t-130 148.5q-13 23 -24 63t-11 66zM614 268l416 1041q9 24 23.5 38.5t29.5 14.5q21 0 34 -14.5t13 -38.5q0 -18 -6 -33l-413 -1040l-82 -181q-24 -55 -51 -55q-15 0 -25 10t-10 27q0 19 10 49z" />
    <glyph glyph-name="ampersand" unicode="&#x26;" horiz-adv-x="1130" 
d="M741 336v143q0 94 -129 94t-203.5 -61t-74.5 -168q0 -82 63.5 -140.5t153.5 -58.5q84 0 137 53.5t53 137.5zM979 696h37q80 0 80 -61q0 -30 -16.5 -50.5t-41.5 -23.5l-34 -2q-12 -2 -16.5 -13t-4.5 -40l2 -182q0 -156 -116.5 -242t-327.5 -86q-198 0 -316 65
q-82 46 -132 128.5t-50 170.5q0 104 73.5 191t207.5 143q30 12 30 25q0 25 -53 57q-103 70 -139.5 116t-36.5 103q0 82 60.5 160.5t172.5 142.5q135 76 215 76q69 0 117.5 -37t48.5 -90q0 -25 -14.5 -36.5t-48.5 -14.5q-121 -9 -208 -71.5t-87 -139.5q0 -62 65 -133
q141 -156 244 -156q26 0 32.5 11.5t8.5 56.5t37 76.5t86 31.5q63 0 91 -39.5t34 -136.5z" />
    <glyph glyph-name="quotesingle" unicode="'" horiz-adv-x="495" 
d="M319 795h-143l-51 569h246z" />
    <glyph glyph-name="parenleft" unicode="(" horiz-adv-x="466" 
d="M348 -297q-33 -33 -59 -33q-63 0 -152 121q-46 59 -61 101t-15 112v1145q0 66 27.5 124.5t97.5 139.5q41 49 63.5 68.5t39.5 19.5q14 0 33 -16l32 -27q25 -22 25 -35q0 -14 -19 -45q-41 -63 -51 -105.5t-10 -150.5v-1071q0 -92 86 -184q35 -38 35 -60t-25 -51z" />
    <glyph glyph-name="parenright" unicode=")" horiz-adv-x="468" 
d="M166 80v1106q0 70 -31 106l-72 84q-20 23 -20 54q0 32 29 61l45 41q12 12 26 12q61 0 150 -102q57 -64 76.5 -118t19.5 -142l4 -1059q0 -110 -38 -205.5t-109 -161.5q-81 -78 -135 -78q-2 1 -6.5 2.5t-6.5 2.5l-37 34q-12 9 -12 27q0 8 2 10q6 15 55 76q60 82 60 250z
" />
    <glyph glyph-name="asterisk" unicode="*" horiz-adv-x="651" 
d="M289 1284q-17 72 -17 105q0 34 15.5 57.5t38.5 23.5q24 0 41.5 -23t17.5 -54q0 -13 -6 -68q0 -23 -2 -41q48 27 73.5 35t63.5 8q31 0 45 -13t14 -42q0 -34 -20 -50t-64 -16q-31 0 -96 8q13 -14 62 -63q55 -52 55 -86q0 -22 -17 -37.5t-40 -15.5q-33 0 -57 27t-54 100
l-12 24q-39 -81 -69 -114t-62 -33q-24 0 -40 16.5t-16 42.5q0 24 13 42t55 52q17 13 55 50q-46 -7 -78 -7q-51 0 -80.5 18t-29.5 50q0 23 20.5 40t48.5 17t53.5 -9t88.5 -44z" />
    <glyph glyph-name="plus" unicode="+" 
d="M14 793h400v378h194v-376h402v-195h-400v-379h-194v377h-402v195z" />
    <glyph glyph-name="comma" unicode="," horiz-adv-x="407" 
d="M180 -115l4 103q0 15 -26 28l-41 21q-23 12 -38.5 37t-15.5 53q0 46 36.5 76t90.5 30q71 0 112.5 -41.5t41.5 -111.5q0 -75 -45 -186q-14 -32 -23 -41q-13 -19 -40 -19q-22 0 -39 15t-17 36z" />
    <glyph glyph-name="hyphen" unicode="-" horiz-adv-x="751" 
d="M547 494h-354q-51 0 -82 29.5t-31 78.5q0 54 36 86.5t95 32.5h287q97 0 139.5 -27t42.5 -88q0 -54 -35 -83t-98 -29z" />
    <glyph glyph-name="period" unicode="." horiz-adv-x="411" 
d="M199 227q61 0 105 -35.5t44 -85.5q0 -43 -39.5 -74.5t-93.5 -31.5q-59 0 -101 35t-42 84q0 43 38 75.5t89 32.5z" />
    <glyph glyph-name="slash" unicode="/" horiz-adv-x="847" 
d="M770 1249l-559 -1298q-38 -80 -82 -80q-35 0 -59.5 19.5t-24.5 48.5q0 38 23 86l561 1290q25 55 45 77.5t43 22.5q32 0 56 -19.5t24 -47.5v-2q-3 -39 -27 -97z" />
    <glyph glyph-name="zero" unicode="0" horiz-adv-x="1003" 
d="M479 721q-88 0 -138 -61.5t-50 -167.5q0 -141 78 -247t184 -106q75 0 127.5 63t52.5 154q0 144 -77 254.5t-177 110.5zM61 410q18 259 213 368q75 41 157 66.5t140 25.5q93 0 179 -57t138 -151.5t52 -196.5q0 -121 -66 -229t-176 -172t-233 -64q-102 0 -201.5 69
t-159.5 181q-17 31 -30 78.5t-13 81.5z" />
    <glyph glyph-name="one" unicode="1" horiz-adv-x="1003" 
d="M391 137v619q0 110 115 110q49 0 77.5 -26.5t28.5 -71.5v-657q0 -52 -28 -82.5t-76 -30.5q-60 0 -88.5 33.5t-28.5 105.5z" />
    <glyph glyph-name="two" unicode="2" horiz-adv-x="1003" 
d="M561 195h154q57 0 90 -28.5t33 -76.5q0 -46 -21 -67t-65 -21h-506q-36 0 -52 13.5t-16 43.5q0 61 19.5 94t78.5 72q36 23 113 88q19 16 86 74q52 49 83.5 104.5t31.5 98.5q0 33 -24.5 66t-63.5 53q-27 12 -45 12q-38 0 -92 -41q-57 -42 -78.5 -54t-42.5 -12
q-25 0 -43.5 16t-18.5 38q0 31 37 70.5t100 74.5q81 47 138 47q108 0 258 -102q106 -73 106 -152q0 -72 -53 -153.5t-135 -137.5q-107 -70 -107 -98q0 -9 10 -15.5t25 -6.5z" />
    <glyph glyph-name="three" unicode="3" horiz-adv-x="1003" 
d="M262 -358l117 30q90 25 151.5 93.5t61.5 144.5q0 52 -31 98t-84 76l-98 55q-50 28 -77.5 61.5t-27.5 65.5q0 70 121 168q135 112 135 189q0 43 -33.5 77.5t-76.5 34.5q-36 0 -86 -30l-66 -41q-27 -17 -55 -17q-26 0 -42.5 14.5t-16.5 36.5q0 25 18.5 46t63.5 47
q93 54 127 66.5t92 12.5q47 0 100.5 -25t132.5 -85q37 -28 58.5 -65t21.5 -74q0 -71 -80 -164q-70 -79 -84 -100.5t-14 -47.5q0 -32 27 -59t96 -62t99 -74t30 -96q0 -129 -86 -243.5t-230 -183t-307 -68.5q-86 0 -86 53q0 16 12 26t43 19z" />
    <glyph glyph-name="four" unicode="4" horiz-adv-x="1003" 
d="M557 313v359q0 32 -6 43.5t-23 11.5q-49 0 -118 -63q-63 -57 -98.5 -112.5t-35.5 -98.5q0 -47 35.5 -99.5t89.5 -83.5q48 -28 91 -28q30 0 47.5 19t17.5 52zM780 705v-400q0 -39 35 -53l45 -16q19 -6 31 -29.5t12 -52.5q0 -27 -10.5 -58t-24.5 -45q-2 -4 -10 -4l-43 -14
q-22 -6 -22 -37v-109q0 -72 -31 -113.5t-86 -41.5q-45 0 -80 31.5t-35 72.5v96q0 61 -20 84.5t-76 28.5q-90 7 -153.5 41.5t-135.5 114.5q-94 105 -94 174q0 77 76.5 197t171.5 192q72 54 153 84.5t154 30.5q143 0 143 -174z" />
    <glyph glyph-name="five" unicode="5" horiz-adv-x="1003" 
d="M348 848h342q46 0 72 -18t26 -50q0 -34 -18.5 -48.5t-60.5 -14.5h-224q-49 0 -68.5 -34t-19.5 -118q0 -108 24 -143t107 -47q34 -6 88.5 -33t98.5 -59q127 -95 127 -258q0 -243 -262 -392q-84 -48 -183.5 -79t-169.5 -31q-80 0 -80 47q0 48 91 63q189 34 277.5 103
t88.5 182q0 135 -81 223.5t-216 98.5q-50 3 -77 12.5t-44 38t-21.5 72t-4.5 124.5v179q0 81 33 131.5t86 50.5h69z" />
    <glyph glyph-name="six" unicode="6" horiz-adv-x="1003" 
d="M530 145q91 0 150 60.5t59 152.5q0 136 -49 226t-123 90q-35 0 -69 -12q-79 -31 -99 -31q-19 0 -34 14t-15 31q0 42 70 84q95 53 207 53q80 0 151 -48t123 -138q45 -76 45 -191q0 -89 -29.5 -152t-101.5 -124q-190 -160 -362 -160q-90 0 -166 49t-127 139
q-50 88 -79.5 194t-29.5 196q0 196 116 378t325 314q53 31 81 33h5q15 0 27.5 -12t12.5 -27q0 -22 -21 -45.5t-75 -61.5q-129 -91 -185 -219.5t-56 -331.5q0 -120 34 -226.5t92 -170.5t123 -64z" />
    <glyph glyph-name="seven" unicode="7" horiz-adv-x="1003" 
d="M424 713h-143q-103 0 -103 71q0 31 24 49.5t64 18.5h236q138 0 202 -53.5t64 -167.5q0 -129 -79.5 -406.5t-190.5 -531.5q-77 -185 -156 -185q-33 0 -65.5 20.5t-49.5 51.5q-6 15 -6 27q0 23 15 57q7 16 23.5 52t23.5 53q245 535 245 796q0 148 -104 148z" />
    <glyph glyph-name="eight" unicode="8" horiz-adv-x="1003" 
d="M283 455q0 -80 55 -176q46 -80 81 -107t93 -27q104 0 151.5 63.5t47.5 201.5q0 130 -51.5 207t-139.5 77q-95 0 -166 -72t-71 -167zM229 827l-77 156q-13 26 -13 55q0 33 14 59t50 60q157 148 270 148q81 0 203 -66q68 -38 105.5 -86.5t37.5 -97.5q0 -78 -36.5 -131.5
t-90.5 -53.5q-36 0 -69 23q-37 21 -37 47q0 13 10 51q8 21 8 41q0 73 -119 129q-40 19 -53 19q-6 0 -18 -6q-31 -12 -45 -44q-13 -23 -13 -36q0 -48 50 -140q45 -91 108 -100l145 -23q115 -17 195 -132t80 -263q0 -111 -68.5 -212.5t-182 -162.5t-237.5 -61
q-155 0 -266.5 124t-111.5 296q0 88 32.5 149.5t120.5 141.5q31 28 37 49v2q-1 3 -29 65z" />
    <glyph glyph-name="nine" unicode="9" horiz-adv-x="1003" 
d="M403 -324l115 88q44 33 88.5 102.5t65.5 133.5q16 54 30 131q19 125 19 172q0 184 -68 310t-168 126q-98 0 -151 -59.5t-53 -167.5q0 -133 43.5 -216t113.5 -83q34 0 105 23q35 14 67 14q19 0 31 -13t12 -32q0 -32 -41.5 -62t-110.5 -48.5t-143 -18.5q-65 0 -107 23
t-97 89t-79 129.5t-24 143.5q0 87 32.5 151t104.5 121q85 65 186 101t197 36q91 0 164.5 -42t114.5 -117q43 -77 67.5 -182.5t24.5 -215.5q0 -99 -22 -180.5t-74 -169.5q-50 -85 -96.5 -140t-147.5 -145q-139 -127 -217 -127q-18 0 -30.5 12t-12.5 27q0 37 61 86z" />
    <glyph glyph-name="colon" unicode=":" horiz-adv-x="401" 
d="M328 109q0 -47 -36 -79t-89 -32q-57 0 -99.5 35t-42.5 82q0 44 38 76t91 32t95.5 -35t42.5 -79zM59 731q0 25 20 53.5t46 42.5q32 19 68 19q38 0 73.5 -21t55.5 -55q10 -23 10 -43q0 -41 -37.5 -71.5t-89.5 -30.5q-57 0 -101.5 33t-44.5 73z" />
    <glyph glyph-name="semicolon" unicode=";" horiz-adv-x="413" 
d="M195 -115l6 39q2 6 2 19q0 48 -25 59l-41 23q-25 12 -40 37.5t-15 54.5q0 44 36.5 74t90.5 30q65 0 105 -42t40 -109q0 -41 -17 -101.5t-40 -105.5q-9 -17 -24.5 -28t-30.5 -11q-19 0 -33 15.5t-14 37.5v6v2zM348 735q0 -47 -40 -78.5t-101 -31.5q-60 0 -98.5 29.5
t-38.5 76.5q0 51 38 84t97 33q61 0 102 -32.5t41 -80.5z" />
    <glyph glyph-name="less" unicode="&#x3c;" 
d="M1006 1204v-180l-773 -338l773 -311v-182l-990 399v184z" />
    <glyph glyph-name="equal" unicode="=" 
d="M16 623h990v-168h-990v168zM16 938h990v-166h-990v166z" />
    <glyph glyph-name="greater" unicode="&#x3e;" 
d="M16 193v182l772 336l-772 311v182l990 -399v-184z" />
    <glyph glyph-name="question" unicode="?" horiz-adv-x="731" 
d="M348 236q54 0 92.5 -35t38.5 -84q0 -51 -36.5 -87t-86.5 -36q-52 0 -86 35.5t-34 89.5q0 51 31.5 84t80.5 33zM641 973l-119 -166q-69 -98 -69 -195l2 -8q2 -74 2 -121q0 -88 -95 -88q-71 0 -98.5 32t-27.5 114q0 141 36.5 242t130.5 216q58 69 58 111q0 40 -23.5 79.5
t-58.5 61.5q-18 9 -31 9q-35 0 -108 -50q-121 -84 -164 -84q-20 0 -32.5 14t-12.5 36q0 42 45.5 87t142.5 99q75 41 150 41q69 0 120 -24.5t111 -86.5q90 -94 90 -170q0 -84 -49 -149z" />
    <glyph glyph-name="at" unicode="@" horiz-adv-x="1398" 
d="M668 438q89 0 145.5 73t56.5 187q0 83 -43 132t-116 49q-91 0 -153 -73t-62 -179q0 -83 48 -136t124 -53zM1147 270h147q-67 -82 -106 -120t-94 -74q-153 -99 -375 -99q-156 0 -291 52.5t-230 144.5t-149.5 222t-54.5 280q0 201 93.5 364.5t259.5 256t372 92.5
q187 0 337.5 -75t235 -208.5t84.5 -300.5q0 -175 -89 -308t-249 -194q-72 -29 -120 -29q-51 0 -78 28t-27 79q-79 -98 -203 -98q-132 0 -214.5 92.5t-82.5 240.5q0 181 108.5 304.5t268.5 123.5t230 -131l22 107h145l-92 -533q-2 -9 -4 -19.5t-3 -16t-1 -9.5v-10
q-1 -17 7 -26t22 -9q29 0 74 31t86 80q94 111 94 266q0 218 -153.5 360t-389.5 142q-165 0 -300.5 -78.5t-213.5 -215t-78 -302.5t78 -301.5t214.5 -213t303.5 -77.5q135 0 244 53q48 24 82.5 49.5t89.5 79.5z" />
    <glyph glyph-name="A" unicode="A" horiz-adv-x="1175" 
d="M844 1139l289 -895q36 -107 36 -138q0 -38 -37.5 -69t-84.5 -31q-43 0 -78.5 26t-48.5 68l-318 977q-12 40 -19.5 52t-19.5 12q-52 0 -121 -183l-139 -376q-31 -85 -31 -160q0 -78 63.5 -133.5t153.5 -55.5q38 0 73 14t54 36l84 100q13 16 37 16q22 0 42.5 -13.5
t31.5 -33.5q1 -5 2.5 -9t1.5 -7q0 -22 -24 -62q-66 -108 -162 -198q-86 -80 -180 -80q-119 0 -256 76q-78 41 -124 99t-46 114q0 134 204 659q42 108 101 221q55 112 106.5 151.5t140.5 39.5q115 0 171.5 -45.5t97.5 -171.5z" />
    <glyph glyph-name="B" unicode="B" horiz-adv-x="1069" 
d="M354 1059v-721q0 -103 43.5 -152t132.5 -49q91 0 145 53t54 142q0 143 -119 198q-87 42 -110 62t-23 51q0 36 45 78q102 98 130 139.5t28 95.5q0 111 -133 183q-75 41 -125 47h-4q-34 0 -49 -30.5t-15 -96.5zM698 692q125 -53 187 -97.5t96 -107.5q35 -68 35 -147
q0 -161 -127 -256.5t-340 -95.5q-257 0 -393 112q-47 40 -62.5 86t-15.5 150v751q0 133 100 187q58 34 143 58t142 24q114 0 240 -72.5t194 -175.5q37 -58 37 -125q0 -60 -34.5 -111t-123.5 -120q-9 -7 -35.5 -27t-42.5 -33z" />
    <glyph glyph-name="C" unicode="C" horiz-adv-x="1032" 
d="M924 129l-70 -49q-117 -86 -276 -86q-243 0 -385 176.5t-142 480.5q0 142 41 260.5t117 194.5q93 93 239.5 166.5t241.5 73.5q78 0 156 -40t119 -102q12 -21 12 -47q0 -46 -33.5 -79.5t-79.5 -33.5q-51 0 -131 66q-94 74 -133 74q-18 0 -54 -13t-63 -30
q-52 -29 -76.5 -72t-44.5 -141q-30 -150 -30 -291q0 -207 88.5 -355.5t212.5 -148.5q44 0 92.5 21t126.5 73q41 31 70 31q23 0 39 -17t16 -40q0 -33 -53 -72z" />
    <glyph glyph-name="D" unicode="D" horiz-adv-x="1157" 
d="M365 1016v-670q0 -125 26.5 -163t112.5 -38q151 0 247.5 134.5t96.5 343.5q0 177 -41.5 285.5t-142.5 197.5q-119 98 -201 98q-51 0 -74.5 -45.5t-23.5 -142.5zM82 266l2 787q0 101 32.5 154.5t123.5 103.5q85 49 184 49q183 0 457 -227q112 -91 148 -157t61 -218
q16 -101 16 -183q0 -153 -56.5 -282t-152.5 -195q-69 -47 -171.5 -73.5t-215.5 -26.5q-109 0 -203 14t-135 37q-43 25 -66.5 82.5t-23.5 134.5z" />
    <glyph glyph-name="E" unicode="E" horiz-adv-x="1046" 
d="M430 760h418q104 0 104 -90q0 -56 -33 -80.5t-108 -24.5h-387q-33 0 -54.5 -14.5t-21.5 -36.5q0 -31 26 -103.5t58 -134.5q35 -67 90.5 -105t118.5 -38q49 0 91.5 20t139.5 87q48 34 80 34q23 0 39.5 -16.5t16.5 -38.5q0 -53 -136 -137l-51 -33q-75 -47 -194 -47
q-180 0 -292.5 57t-184.5 185q-99 172 -99 385q0 136 44 271t110 206q68 68 217 154t258 86q115 0 202 -55.5t87 -127.5q0 -49 -29 -79.5t-74 -30.5q-35 0 -67 15.5t-119 74.5q-58 39 -94 39q-95 0 -165.5 -105t-70.5 -246q0 -47 13 -59t67 -12z" />
    <glyph glyph-name="F" unicode="F" horiz-adv-x="823" 
d="M78 129v901q0 146 74.5 223.5t212.5 77.5h274q63 0 102 -31t39 -83q0 -48 -24 -66t-88 -18h-267q-67 0 -67 -48v-272q0 -29 12 -41t43 -12h309q46 0 74.5 -27.5t28.5 -73.5t-26.5 -72t-72.5 -26h-282q-49 0 -65.5 -11.5t-16.5 -45.5v-350q0 -70 -35 -113t-92 -43
q-59 0 -96 36.5t-37 94.5z" />
    <glyph glyph-name="G" unicode="G" horiz-adv-x="1075" 
d="M764 352v232q0 88 26.5 126t88.5 38q69 -2 100 -46t31 -143v-153q0 -150 -35 -225t-129 -126q-102 -57 -234 -57q-71 0 -147 17t-119 44q-117 69 -200 239.5t-83 340.5q0 98 28 206.5t71 184.5q52 90 151 158q253 166 377 166q86 0 166 -38t117 -95q14 -28 14 -56
q0 -46 -33.5 -80t-79.5 -34q-26 0 -50 12t-68 45q-45 35 -89 56.5t-69 21.5q-71 0 -129.5 -60.5t-91.5 -167t-33 -235.5q0 -264 81.5 -428t213.5 -164q69 0 97 49t28 172z" />
    <glyph glyph-name="H" unicode="H" horiz-adv-x="1116" 
d="M348 1210v-321q0 -40 14 -57t48 -17h313q33 0 44 14.5t11 57.5v340q0 61 32.5 94t92.5 33q131 0 131 -117v-1079q0 -88 -26.5 -123t-92.5 -35q-59 0 -98 37t-39 92v397q0 43 -2 56t-10 16q-13 8 -43 8h-313q-43 0 -52.5 -9t-9.5 -52v-426q0 -54 -36 -86.5t-95 -32.5
q-66 0 -100.5 35.5t-34.5 103.5v1030q0 110 29 152.5t104 42.5q65 0 99 -39.5t34 -114.5z" />
    <glyph glyph-name="I" unicode="I" horiz-adv-x="444" 
d="M358 1190v-1020q0 -89 -35.5 -130.5t-109.5 -41.5q-60 0 -93.5 39.5t-33.5 109.5l2 1057q0 152 129 152q77 0 109 -37t32 -129z" />
    <glyph glyph-name="J" unicode="J" horiz-adv-x="468" 
d="M139 129v950q0 61 -5 85t-17 26l-64 8q-21 3 -37 26t-16 50q0 76 176 76q118 0 167.5 -41.5t49.5 -139.5v-974q0 -146 -21.5 -210t-101.5 -163q-116 -144 -204 -144q-35 0 -57.5 20.5t-22.5 51.5q0 22 16 47.5t66 81.5q45 53 58 99t13 151z" />
    <glyph glyph-name="K" unicode="K" horiz-adv-x="999" 
d="M334 506v-352q0 -83 -28 -118.5t-91 -35.5q-68 0 -100.5 35t-32.5 108v1078q0 61 33 96t92 35q127 0 127 -156v-393q0 -54 3.5 -71t14.5 -17q44 0 228 149q86 73 86 127q0 37 -25 79.5t-63 68.5q-17 12 -54 16l-82 2q-14 0 -26 23q-13 23 -13 43q0 40 56 69q91 49 159 49
q44 0 94.5 -31t96.5 -89q115 -137 115 -220q0 -88 -148 -196q-71 -52 -213 -150q139 -66 207 -120t109 -132q46 -85 73 -192q21 -89 21 -111q0 -49 -29 -74.5t-82 -25.5q-102 0 -127 72l-51 129q-49 130 -149 235q-52 53 -106.5 94t-74.5 41q-8 0 -14 -6.5t-6 -15.5v-43z
" />
    <glyph glyph-name="L" unicode="L" horiz-adv-x="813" 
d="M338 1180v-885q0 -57 13.5 -74.5t56.5 -17.5h278q43 0 70.5 -28t27.5 -71q0 -46 -27.5 -75t-70.5 -29h-291q-152 0 -232.5 80t-80.5 231v846l-2 33q0 147 125 147q61 0 97 -42.5t36 -114.5z" />
    <glyph glyph-name="M" unicode="M" horiz-adv-x="1224" 
d="M897 872l-170 -264q-35 -53 -67 -75.5t-70 -22.5t-47 12l-76 92l-127 217l-27 41v-710q0 -97 -23 -129.5t-91 -32.5q-63 0 -90 37t-27 125v1048q0 85 28 117.5t101 32.5q136 0 190 -100l201 -367q23 -45 39 -45q6 0 12.5 7.5t26.5 37.5l231 352q46 72 67 90.5t56 18.5
q109 0 109 -185v-981q0 -92 -26.5 -132t-88.5 -40q-61 0 -96 39t-35 107v710z" />
    <glyph glyph-name="N" unicode="N" horiz-adv-x="1134" 
d="M82 113v1022q0 141 21 180t98 39q52 0 104 -25q109 -53 241 -148.5t228 -191.5q42 -45 60 -45q14 0 14 43v254q0 107 92 107q62 0 87.5 -27.5t25.5 -93.5v-1086q0 -73 -25.5 -106t-79.5 -33q-66 0 -102.5 43.5t-36.5 122.5v313q0 110 -44.5 178.5t-201.5 200.5
q-103 87 -194 146q-24 16 -41 16q-37 0 -37 -113v-741q0 -95 -20.5 -129.5t-77.5 -34.5q-51 0 -81 29.5t-30 79.5z" />
    <glyph glyph-name="O" unicode="O" horiz-adv-x="1157" 
d="M850 588l-2 53q-3 173 -20.5 261.5t-65.5 172.5q-32 58 -81 92.5t-99 34.5q-120 0 -194.5 -118.5t-74.5 -307.5q0 -149 29 -287.5t78 -226.5q28 -50 72 -77t96 -27q48 0 98 20.5t82 54.5q45 48 63.5 127.5t18.5 227.5zM553 0q-227 0 -364.5 179.5t-137.5 477.5
q0 232 77.5 374.5t260.5 248.5q124 70 217 70q106 0 226 -77t180 -183q92 -164 92 -381q0 -115 -24.5 -231t-65.5 -189q-34 -63 -137 -144q-113 -87 -178.5 -116t-145.5 -29z" />
    <glyph glyph-name="P" unicode="P" horiz-adv-x="942" 
d="M348 1100v-936q0 -91 -27 -127.5t-96 -36.5q-78 0 -110.5 40.5t-32.5 135.5v836q0 131 27.5 186.5t121.5 110.5q103 59 203 59q115 0 236.5 -61t201.5 -158q28 -34 45 -76.5t17 -79.5q0 -41 -19 -85.5t-51 -78.5q-82 -86 -192 -147t-185 -61q-28 0 -50.5 17.5t-22.5 39.5
q0 27 20 46.5t78 49.5q82 41 118 85.5t36 103.5q0 61 -30 102t-118 100q-54 33 -90 33q-37 0 -58.5 -27t-21.5 -71z" />
    <glyph glyph-name="Q" unicode="Q" horiz-adv-x="1191" 
d="M610 143q127 0 195.5 116t68.5 333q0 172 -35 310t-97.5 216t-139.5 78q-86 0 -160 -84q-104 -116 -104 -346q0 -173 35.5 -316t98 -225t138.5 -82zM440 10l-121 58q-115 55 -190.5 221t-75.5 364q0 109 24.5 214.5t65.5 174.5q78 136 258 242q56 33 101.5 46t103.5 13
q239 0 385 -179t146 -472q0 -256 -103 -426q-44 -71 -98.5 -117.5t-155.5 -99.5q-26 -14 -26 -29q0 -18 49 -24q84 -17 118.5 -41.5t34.5 -65.5q0 -37 -28.5 -61.5t-71.5 -24.5q-46 0 -117 23q-94 36 -141 68z" />
    <glyph glyph-name="R" unicode="R" 
d="M342 1061v-932q0 -59 -32.5 -94t-86.5 -35q-74 0 -107.5 42t-33.5 136v850q0 114 25 168t96 94q56 31 131 51.5t133 20.5q119 0 240 -75t184 -187q33 -56 33 -123q0 -78 -66 -160.5t-176 -142.5q-49 -25 -49 -47q0 -16 41 -52q8 -8 55 -61l90 -104q66 -75 111 -164
t45 -144q0 -47 -37.5 -75.5t-97.5 -28.5q-65 0 -102 40.5t-91 170.5q-72 174 -147 256q-61 65 -77.5 90.5t-16.5 52.5q0 62 83 117q125 84 158 123t33 108q0 114 -158 207q-53 29 -94 29q-40 0 -63 -35t-23 -96z" />
    <glyph glyph-name="S" unicode="S" horiz-adv-x="995" 
d="M635 758l160 -109q61 -41 102 -115t41 -145q0 -98 -74 -188.5t-195.5 -145.5t-252.5 -55q-92 0 -180 37.5t-154 103.5q-45 51 -45 86q0 54 31 89.5t77 35.5q37 0 71.5 -17.5t111.5 -76.5q118 -88 202 -88q62 0 105 39t43 96q0 87 -78.5 170.5t-249.5 179.5
q-155 86 -218.5 160.5t-63.5 171.5q0 86 46.5 145t168.5 130q12 7 67 36q102 48 193 48q119 0 215 -56t96 -125q0 -43 -30.5 -73.5t-71.5 -30.5q-57 0 -148 55q-107 66 -141 66q-57 0 -102.5 -41t-45.5 -92q0 -43 28 -77t110 -91z" />
    <glyph glyph-name="T" unicode="T" horiz-adv-x="894" 
d="M807 1147h-156q-44 0 -56.5 -12.5t-12.5 -55.5v-891q0 -105 -26.5 -146.5t-92.5 -41.5q-62 0 -95.5 40.5t-33.5 113.5v915q0 55 -9 66.5t-51 11.5h-151q-46 0 -78.5 28.5t-32.5 69.5q0 40 32.5 64t86.5 24h637q52 0 83.5 -27t31.5 -71q0 -35 -22.5 -61.5t-53.5 -26.5z
" />
    <glyph glyph-name="U" unicode="U" horiz-adv-x="1118" 
d="M788 584v628q0 65 32.5 104.5t86.5 39.5q64 0 99.5 -46.5t35.5 -129.5v-529q0 -219 -81 -365t-256 -243q-92 -51 -166 -51q-117 0 -239 63.5t-169 149.5q-25 44 -41 139t-16 191v634q0 102 30 143.5t103 41.5q61 0 94 -40t33 -112v-678v-3q0 -3 -0.5 -7.5t-1 -11
t-0.5 -16.5v-21v-16q0 -147 56 -229.5t155 -82.5q54 0 109 35.5t83 89.5q32 61 42.5 125.5t10.5 196.5z" />
    <glyph glyph-name="V" unicode="V" horiz-adv-x="1067" 
d="M829 936q0 85 -62.5 145t-150.5 60q-83 0 -129 -58q-31 -37 -41 -44t-30 -7q-22 0 -41.5 10t-28.5 27q-6 9 -6 18q0 56 123 170q71 65 112 88t87 23q95 0 204 -53.5t152 -120.5q26 -44 26 -115q0 -77 -45 -233q-104 -371 -178 -557q-63 -157 -128 -224t-154 -67
q-132 0 -218 111t-149 364q-136 554 -154 768v8q0 47 38 79t94 32q62 0 93.5 -38t41.5 -126q34 -271 61 -404t90 -337q45 -133 82 -201q17 -27 37 -27q55 0 133 228l98 288q43 122 43 193z" />
    <glyph glyph-name="W" unicode="W" horiz-adv-x="1556" 
d="M784 180q-67 -120 -118.5 -158t-143.5 -38q-164 0 -231 133q-137 293 -230 782q-43 221 -43 295q0 83 33 127.5t96 44.5q49 0 80.5 -28t40.5 -81l39 -221l78 -430q31 -172 74 -283.5t78 -111.5q42 0 96 111l45 88q53 107 90 253t37 244q0 104 -59 168t-154 64
q-35 0 -61.5 -11t-67.5 -43q-43 -30 -64 -30q-28 0 -48.5 20.5t-20.5 48.5q0 38 30 89t80 96q90 84 191 84q102 0 217 -59.5t156 -133.5q28 -58 28 -149q0 -191 -59 -389q-45 -142 -45 -220q0 -55 29.5 -114.5t70.5 -85.5q6 -6 21 -6q31 0 64.5 45.5t62.5 128.5
q90 249 118.5 358t28.5 203q0 66 -36 97t-157 71q-52 15 -81 49.5t-29 77.5q0 37 39 64.5t94 27.5q61 0 144 -24.5t151 -61.5q54 -31 73 -68.5t19 -111.5q0 -232 -131 -598q-95 -260 -166 -371q-77 -123 -199 -123q-83 0 -145 43t-115 137z" />
    <glyph glyph-name="X" unicode="X" horiz-adv-x="1116" 
d="M575 907l222 330q57 87 78.5 106t64.5 19q54 0 85.5 -27.5t31.5 -74.5q0 -45 -51 -121l-277 -422l326 -492q37 -52 37 -110q0 -46 -41.5 -79.5t-98.5 -33.5q-31 0 -55 18t-57 68l-277 399l-297 -415q-51 -74 -114 -74q-37 0 -70.5 17t-52.5 46q-15 22 -15 41q0 37 62 123
l348 469l-320 484q-36 48 -36 86q0 46 37.5 81t84.5 35q70 0 123 -75z" />
    <glyph glyph-name="Y" unicode="Y" horiz-adv-x="1003" 
d="M526 899l248 361q36 54 61.5 73t57.5 19q41 0 70.5 -28.5t29.5 -68.5q0 -59 -49 -133l-309 -450v-535q0 -137 -139 -137q-136 0 -136 162v500l-321 503q-33 51 -33 92q0 49 38 84t89 35q86 0 148 -94z" />
    <glyph glyph-name="Z" unicode="Z" horiz-adv-x="1019" 
d="M569 1122h-344q-55 0 -92 29t-37 72q0 40 30.5 67t74.5 27h604q135 0 135 -96q0 -112 -147 -293l-109 -135q-47 -55 -143 -211q-76 -125 -92 -158l-56 -113q-21 -47 -24 -75v-3q0 -20 14.5 -26t58.5 -6h441q110 0 110 -97q0 -62 -28.5 -82t-116.5 -20h-658
q-163 0 -163 109q0 86 90 256q192 360 352 544l104 123q18 21 31.5 44t13.5 32q0 8 -9 10t-40 2z" />
    <glyph glyph-name="bracketleft" unicode="[" horiz-adv-x="536" 
d="M401 -172l64 -8q22 -3 38.5 -25.5t16.5 -50.5q0 -76 -168 -76q-104 0 -151 44.5t-47 140.5v1468q0 97 45 138.5t149 41.5q172 0 172 -76q0 -28 -16.5 -50t-38.5 -25l-64 -9q-12 -1 -16 -25t-4 -85v-1292q0 -61 4 -85.5t16 -25.5z" />
    <glyph glyph-name="backslash" unicode="\" horiz-adv-x="847" 
d="M211 1315l563 -1290q23 -48 23 -88q0 -28 -24.5 -47t-61.5 -19q-42 0 -80 80l-559 1298q-24 49 -27 94v7q0 26 24 45.5t56 19.5q24 0 43.5 -22.5t42.5 -77.5z" />
    <glyph glyph-name="bracketright" unicode="]" horiz-adv-x="536" 
d="M156 -61v1292q0 107 -23 110l-63 9q-22 3 -39 25.5t-17 49.5q0 76 174 76q102 0 147.5 -42t47.5 -138v-1468q0 -95 -48 -140t-151 -45q-168 0 -168 76q0 28 16 50.5t38 25.5l63 8q23 3 23 111z" />
    <glyph glyph-name="asciicircum" unicode="^" 
d="M207 764h-184l393 600h190l395 -600h-184l-307 450z" />
    <glyph glyph-name="underscore" unicode="_" 
d="M1024 -145v-197h-1024v197h1024z" />
    <glyph glyph-name="grave" unicode="`" horiz-adv-x="362" 
d="M111 1298l88 -12q66 -8 101.5 -58t35.5 -138q0 -29 -31 -29t-72.5 24.5t-158.5 110.5q-47 36 -47 64q0 15 21 26.5t50 11.5h13z" />
    <glyph glyph-name="a" unicode="a" horiz-adv-x="901" 
d="M604 385l-84 2l-59 2l-12 2q-166 0 -166 -112q0 -50 40.5 -88.5t94.5 -38.5q42 0 89.5 26.5t76.5 65.5q20 29 20 63v78zM602 88q-160 -98 -242 -98q-68 0 -151 39t-125 92q-15 17 -26 47t-11 55q0 73 54.5 147t148.5 128q104 61 178 61h88h29h8h4q23 0 33 7t10 24v67
q0 47 -31.5 76t-83.5 29q-35 0 -67.5 -13t-79.5 -47q-125 -86 -168 -86q-20 0 -33.5 15.5t-13.5 38.5q0 25 19.5 47.5t64.5 50.5l63 39q68 41 119.5 56.5t124.5 15.5q148 0 237 -64t89 -170v-518q0 -66 -26.5 -95.5t-86.5 -29.5q-47 0 -73 17.5t-52 68.5z" />
    <glyph glyph-name="b" unicode="b" horiz-adv-x="1050" 
d="M741 428q0 134 -45 222.5t-112 88.5q-57 0 -148 -73q-74 -59 -94 -101t-20 -135q0 -123 68.5 -219t154.5 -96q78 0 137 95t59 218zM332 766q104 67 167 91t136 24q160 0 260 -116.5t100 -301.5q0 -128 -33 -196.5t-128 -135.5q-35 -24 -67 -47t-45 -32.5t-15 -10.5
q-76 -43 -193 -43q-120 0 -225.5 60t-163.5 163q-64 113 -64 285v731q0 63 36 97t102 34q133 0 133 -135v-467z" />
    <glyph glyph-name="c" unicode="c" horiz-adv-x="903" 
d="M664 172l65 53q49 39 84 39q17 0 30 -14.5t13 -34.5q0 -33 -44.5 -78t-111.5 -78q-115 -59 -215 -59q-107 0 -204 54.5t-155 146.5t-58 194q0 56 13.5 114t35.5 93q52 86 166 166q89 64 138.5 87.5t98.5 23.5q89 0 168 -38t117 -100q14 -20 14 -49q0 -46 -37 -81.5
t-84 -35.5q-25 0 -43.5 11.5t-52.5 46.5q-74 80 -133 80q-72 0 -121 -55.5t-49 -137.5q0 -149 85 -259.5t200 -110.5q52 0 80 22z" />
    <glyph glyph-name="d" unicode="d" 
d="M715 678q-88 6 -135 6q-141 0 -205 -48.5t-64 -154.5q0 -88 54 -180q34 -60 77 -97.5t78 -37.5q86 0 140.5 61t54.5 158v293zM688 100q-101 -72 -136.5 -90t-76.5 -18q-104 0 -198.5 56.5t-151.5 150.5t-57 198q0 121 62 213t196 170q89 51 137 66.5t115 15.5q26 0 57 -2
q16 -2 27 -2q28 0 37.5 7.5t9.5 29.5v358q0 51 33 81t87 30q125 0 125 -143v-1076q0 -68 -30.5 -104.5t-87.5 -36.5q-41 0 -72.5 20.5t-75.5 75.5z" />
    <glyph glyph-name="e" unicode="e" horiz-adv-x="909" 
d="M360 463l199 121q23 14 23 30q0 41 -54 70q-34 18 -67 18q-69 0 -116.5 -60t-47.5 -148q0 -52 20 -52q13 0 43 21zM772 741l53 -36q37 -26 37 -64q0 -25 -16 -35q-6 -6 -43 -28l-381 -234q-51 -34 -51 -53q0 -28 41 -76q55 -74 141 -74q52 0 100 31l82 59q43 27 70 27
q25 0 39 -12.5t14 -34.5q0 -35 -56 -83.5t-151 -98.5q-60 -29 -149 -29q-121 0 -224.5 54t-164 147t-60.5 202q0 81 38 161t102 138q60 55 172 119q52 31 87.5 42t79.5 11q45 0 91 -15.5t71 -39.5z" />
    <glyph glyph-name="f" unicode="f" horiz-adv-x="563" 
d="M322 1071v-178q0 -41 55 -41h90q32 0 55 -20t23 -48q0 -34 -28 -53.5t-75 -19.5h-65q-35 0 -45 -10t-10 -44v-510q0 -77 -26 -111t-83 -34q-66 0 -101.5 42t-35.5 120v907q0 118 200 234q90 53 150 53t96.5 -30t36.5 -77q0 -41 -27.5 -71.5t-64.5 -30.5h-72
q-41 0 -57 -17t-16 -61z" />
    <glyph glyph-name="g" unicode="g" horiz-adv-x="1040" 
d="M764 440q0 120 -72 193.5t-190 73.5q-98 0 -166 -65t-68 -157q0 -120 83.5 -213.5t189.5 -93.5q104 0 163.5 69.5t59.5 192.5zM760 -98v98v68v6q0 37 -23 37q-26 0 -71 -29q-85 -56 -114.5 -67t-90.5 -11q-169 0 -287.5 114t-118.5 277q0 120 72.5 221t210.5 175
q125 67 188 67q58 0 105.5 -16.5t128.5 -65.5q12 52 36.5 74t69.5 22q57 0 83 -36.5t26 -116.5v-696q0 -169 -71.5 -282.5t-241.5 -213.5q-141 -80 -246 -80q-119 0 -210 54t-91 124q0 50 35 85.5t86 35.5q30 0 52.5 -13.5t110.5 -82.5q52 -43 103 -43q57 0 112 34.5
t95 94.5q22 37 32 71z" />
    <glyph glyph-name="h" unicode="h" horiz-adv-x="944" 
d="M68 137v1067q0 71 26.5 102t87.5 31q74 0 102.5 -29t28.5 -104v-387q0 -39 11 -39q4 0 24 13q59 34 160 63q65 18 119 18q86 0 159 -79q53 -54 73 -112t20 -155v-368q0 -84 -27 -121t-86 -37q-60 0 -93.5 41t-33.5 115v409q0 78 -28.5 123t-78.5 45q-101 0 -153.5 -62
t-52.5 -182v-370q0 -55 -33.5 -87t-89.5 -32q-62 0 -98.5 37t-36.5 100z" />
    <glyph glyph-name="i" unicode="i" horiz-adv-x="403" 
d="M336 735v-629q0 -43 -36.5 -74.5t-86.5 -31.5q-59 0 -94 39.5t-35 105.5v590q0 54 35 87.5t92 33.5q56 0 90.5 -33.5t34.5 -87.5zM195 1339q60 0 99.5 -30t39.5 -76q0 -44 -40 -75.5t-97 -31.5q-55 0 -92 29t-37 72q0 49 35.5 80.5t91.5 31.5z" />
    <glyph glyph-name="j" unicode="j" horiz-adv-x="393" 
d="M78 1257q2 45 34.5 72t86.5 27q52 0 91.5 -33t39.5 -76q0 -41 -35 -68.5t-86 -27.5q-56 0 -93.5 30t-37.5 74v2zM84 -51v792q0 65 31 100.5t88 35.5q123 0 123 -136v-780q0 -120 -69.5 -210t-258.5 -218q-68 -47 -109 -47q-25 0 -41 14t-16 37q0 21 14.5 39.5t49.5 44.5
q83 60 120.5 102t52.5 91.5t15 134.5z" />
    <glyph glyph-name="k" unicode="k" horiz-adv-x="880" 
d="M313 1210v-385q0 -63 25 -63q27 0 98 53q93 70 150 70q92 0 184 -105q47 -56 47 -96q0 -89 -119 -180q-59 -47 -59 -74q0 -16 29 -39q28 -22 94 -110q35 -45 65 -107q21 -41 21 -76q0 -41 -35.5 -70.5t-85.5 -29.5q-45 0 -71 21.5t-52 80.5q-28 67 -72.5 136t-89.5 114
q-41 38 -41 60q0 36 68 82q125 85 125 126q0 13 -8 29q-34 60 -74 60q-86 0 -142.5 -75t-56.5 -190v-331q0 -49 -34.5 -80t-88.5 -31q-66 0 -94 35.5t-28 118.5v1056q0 65 34.5 103.5t92.5 38.5q118 0 118 -142z" />
    <glyph glyph-name="l" unicode="l" horiz-adv-x="370" 
d="M301 1210v-1058q0 -83 -26.5 -118.5t-86.5 -35.5q-57 0 -88.5 32.5t-31.5 92.5v1067q0 72 30.5 110.5t87.5 38.5q55 0 85 -33.5t30 -95.5z" />
    <glyph glyph-name="m" unicode="m" horiz-adv-x="1333" 
d="M317 815q95 39 134 50.5t77 11.5q35 0 59.5 -11.5t86.5 -56.5q48 -31 74 -31q19 0 37 8.5t69 42.5q64 43 131 43q112 0 197.5 -85t85.5 -195v-455q0 -64 -34 -100.5t-93 -36.5q-60 0 -88.5 33.5t-28.5 103.5v455q0 75 -17 107t-55 32q-63 0 -107 -69.5t-44 -167.5v-328
q0 -88 -30.5 -127t-98.5 -39q-71 0 -102 41.5t-31 136.5v414q0 78 -17 112.5t-57 34.5q-66 0 -104.5 -73t-38.5 -195v-332q0 -79 -27.5 -109t-99.5 -30q-69 0 -99 27.5t-30 89.5v643q0 54 32 84t90 30q35 0 62 -12.5t67 -46.5z" />
    <glyph glyph-name="n" unicode="n" horiz-adv-x="919" 
d="M299 782q153 56 195 68t84 12q72 0 138 -41t103 -108q20 -35 27.5 -76t7.5 -115v-379q0 -75 -28.5 -109t-90.5 -34q-58 0 -85 37t-27 117v395q0 84 -28 128t-81 44q-91 0 -148 -66t-57 -170v-358q0 -60 -30.5 -94.5t-83.5 -34.5q-69 0 -99 36.5t-30 119.5v559
q0 78 29 113.5t95 35.5q40 0 64.5 -18t44.5 -62z" />
    <glyph glyph-name="o" unicode="o" horiz-adv-x="1017" 
d="M293 494q0 -146 79 -251.5t187 -105.5q78 0 131 66.5t53 165.5q0 140 -75 245t-176 105q-92 0 -145.5 -60.5t-53.5 -164.5zM565 864q157 0 271 -116t114 -277q0 -92 -39.5 -179t-104.5 -150.5t-152.5 -102.5t-180.5 -39q-101 0 -195.5 59.5t-152 156.5t-57.5 200
q0 123 65.5 221.5t188.5 161.5q53 27 124 46t119 19z" />
    <glyph glyph-name="p" unicode="p" horiz-adv-x="987" 
d="M537 748q-107 0 -169.5 -76t-62.5 -207q0 -157 49 -245.5t135 -88.5q97 0 151 83.5t54 234.5q0 141 -41.5 220t-115.5 79zM326 799l30 10l60 31q64 37 155 37q161 0 263 -116.5t102 -301.5q0 -107 -30 -175.5t-105 -136.5q-51 -45 -103 -73q-50 -29 -118 -49.5
t-117 -20.5q-56 0 -137 41l4 -463q0 -73 -34 -111t-97 -38q-133 0 -133 164v1155q0 62 34 96.5t95 34.5q50 0 78 -18t53 -66z" />
    <glyph glyph-name="q" unicode="q" horiz-adv-x="1021" 
d="M309 477q0 -141 54 -229t139 -88q91 0 162 88t71 201q0 131 -67 223t-162 92q-78 0 -137.5 -86t-59.5 -201zM672 96q-97 -62 -155.5 -83t-131.5 -21q-168 0 -256 158q-78 140 -78 290q0 118 59 203t199 170q126 72 236 72q173 0 297.5 -128t124.5 -308q0 -65 -16.5 -131
t-61.5 -181q-20 -54 -76 -188q-45 -99 -45 -160q0 -27 14.5 -58t34.5 -46q15 -11 23 -13l80 -22q24 -6 38.5 -33t14.5 -66q0 -63 -43 -88.5t-160 -29.5l-29 -2q-106 0 -165.5 53.5t-59.5 148.5q0 84 32 177.5t124 285.5z" />
    <glyph glyph-name="r" unicode="r" horiz-adv-x="546" 
d="M291 780q86 60 110 74t45 14q18 0 30 -11t30 -42q26 -48 26 -84q0 -31 -20.5 -49t-77.5 -37q-82 -28 -112.5 -64.5t-30.5 -107.5v-346q0 -58 -31 -92.5t-84 -34.5q-52 0 -81 33t-29 92v608q0 137 110 137q44 0 70 -20.5t45 -69.5z" />
    <glyph glyph-name="s" unicode="s" horiz-adv-x="737" 
d="M401 557l109 -68q94 -59 131 -108.5t37 -116.5q0 -54 -27.5 -98t-91.5 -94q-93 -72 -178 -72q-63 0 -142.5 21t-142.5 55q-65 32 -65 78q0 28 17.5 56.5t45.5 45.5q21 12 45 12q58 0 144 -67q78 -64 112 -64t58 20.5t24 49.5q0 30 -29.5 61t-93.5 70l-143 86
q-137 82 -137 194q0 56 32.5 101t108.5 90q116 70 184 70q39 0 93 -16t98 -40q53 -29 53 -78q0 -34 -31.5 -61t-72.5 -27q-22 0 -45 11t-82 49q-36 22 -54 22q-26 0 -49 -30q-12 -18 -12 -37q0 -28 24 -55t80 -60z" />
    <glyph glyph-name="t" unicode="t" horiz-adv-x="546" 
d="M68 342v692q0 63 29 97t83 34q51 0 81 -28.5t30 -77.5v-131q0 -42 11.5 -58t41.5 -16h96q78 0 78 -61q0 -72 -78 -72h-96q-32 0 -42.5 -18t-10.5 -74v-379q0 -62 55 -100q22 -11 33 -11q1 1 4.5 1.5t5.5 2.5l39 17q18 6 35 6q28 0 47.5 -19t19.5 -47q0 -44 -57 -73
q-55 -27 -102 -27q-70 0 -135 39q-118 72 -140 117q-28 48 -28 186z" />
    <glyph glyph-name="u" unicode="u" horiz-adv-x="929" 
d="M623 88q-157 -88 -295 -88q-64 0 -127 42.5t-103 113.5q-37 67 -37 182v407q0 58 29.5 88.5t85.5 30.5q77 0 108 -36.5t31 -127.5v-305q0 -134 23 -194t74 -60q85 0 145.5 67t60.5 159v344q0 153 127 153q57 0 88 -33.5t31 -95.5v-592q0 -66 -33 -104.5t-90 -38.5
q-41 0 -68.5 21t-49.5 67z" />
    <glyph glyph-name="v" unicode="v" horiz-adv-x="792" 
d="M256 741l25 -168q58 -376 122 -376q20 0 41.5 33t38.5 92q67 240 88 399q9 84 33.5 117.5t75.5 33.5q46 0 71 -21.5t25 -62.5v-6q-9 -168 -51 -331q-58 -229 -117 -345q-54 -106 -159 -106q-75 0 -152.5 34t-112.5 81q-40 54 -94 231q-76 272 -76 389q0 72 27.5 104.5
t87.5 32.5q69 0 92 -24t35 -107z" />
    <glyph glyph-name="w" unicode="w" horiz-adv-x="1206" 
d="M866 244q36 146 49 229q32 214 71.5 304.5t100.5 90.5q41 0 72 -28t31 -66q0 -60 -86 -442q-39 -159 -111 -262q-22 -32 -58.5 -51t-76.5 -19q-83 0 -127 54t-67 182q-17 102 -43 202q-40 -164 -68.5 -237t-75.5 -133q-54 -66 -135 -66q-82 0 -128.5 50t-72.5 167
q-52 219 -71 279q-56 174 -56 264q0 49 28 79.5t73 30.5q47 0 72 -18t44 -64.5t45 -152.5q36 -156 101 -406q7 28 20 84q0 1 25 136q57 315 106 383q21 34 76 34t89 -39.5t64.5 -138t71.5 -305.5q7 -41 37 -141z" />
    <glyph glyph-name="x" unicode="x" horiz-adv-x="872" 
d="M428 573q67 83 90 123q61 100 97.5 136t76.5 36q46 0 82.5 -22.5t36.5 -52.5q0 -111 -229 -355l32 -35l101 -96q56 -56 95.5 -132t39.5 -130q0 -22 -25 -35.5t-63 -13.5q-42 0 -67.5 20.5t-57.5 81.5q-78 146 -174 209q-1 2 -5 2.5t-5 1.5q-7 0 -11 -2q-20 -12 -28 -20
q-94 -88 -138 -160q-15 -22 -27 -41t-18.5 -30.5t-7.5 -12.5q-17 -24 -35 -33q-23 -14 -69 -14q-51 0 -80 19.5t-29 54.5q0 72 86 178q54 68 88.5 105.5t100.5 101.5q-20 23 -62 65q-180 186 -180 277q0 32 26.5 52.5t67.5 20.5q50 0 77 -22t73 -100q47 -79 141 -177z" />
    <glyph glyph-name="y" unicode="y" horiz-adv-x="968" 
d="M670 475l2 291q0 52 31 81.5t85 29.5q69 0 96 -37.5t27 -134.5v-250q0 -125 -31.5 -233.5t-101.5 -223.5q-42 -71 -56.5 -107.5t-14.5 -70.5q0 -45 22 -81.5t55 -43.5l47 -10q35 -9 56.5 -41.5t21.5 -75.5q0 -65 -46 -94t-150 -29q-118 0 -186 60t-68 163q0 66 27 156
t67 156q35 53 35 90q0 8 -6 9q-1 0 -2 0.5t-2 0.5q-13 0 -58 -27q-73 -43 -139 -43q-78 0 -149 47.5t-115 130.5q-40 72 -57 170t-17 248q0 161 30.5 224t108.5 63q59 0 91 -29.5t32 -83.5q0 -34 -6 -108q-6 -71 -6 -154q0 -177 45 -252.5t149 -75.5q180 0 183 285z" />
    <glyph glyph-name="z" unicode="z" horiz-adv-x="718" 
d="M344 719h-188q-111 0 -111 65q0 26 21 43t55 17h336q92 0 145 -35.5t53 -97.5q0 -52 -36 -100.5t-132 -125.5q-180 -146 -180 -274q0 -33 12.5 -44t49.5 -11h213q51 0 78.5 -22t27.5 -62q0 -32 -19 -51t-53 -19h-385q-91 0 -147.5 51t-56.5 133q0 93 96 224
q103 140 239 260q23 20 23 30q0 19 -41 19z" />
    <glyph glyph-name="braceleft" unicode="{" horiz-adv-x="655" 
d="M276 508q71 -43 98 -97.5t27 -154.5v-285v-67q2 -77 36.5 -103t135.5 -26h29v-152h-31q-20 -2 -51 -2q-167 0 -238 68.5t-71 228.5v326q0 90 -25 131.5t-88 54.5v154q64 15 88.5 55.5t24.5 132.5v336q0 157 72 223t241 66q39 0 78 -2v-150l-24 -2q-104 0 -140.5 -26.5
t-36.5 -102.5v-65v-291q0 -103 -25.5 -154.5t-99.5 -95.5z" />
    <glyph glyph-name="bar" unicode="|" 
d="M430 1364h162v-1722h-162v1722z" />
    <glyph glyph-name="braceright" unicode="}" horiz-adv-x="655" 
d="M377 508q-71 43 -98 97.5t-27 154.5v287v67q-2 77 -36 103t-134 26h-31v152q43 2 80 2q169 0 240 -68t71 -229v-326q0 -91 25 -133t88 -55v-152q-65 -17 -89 -57.5t-24 -132.5v-336q0 -155 -72 -221t-241 -66q-39 0 -78 2v150l25 2q104 0 140 26.5t36 102.5v65v291
q0 101 26 152.5t99 95.5z" />
    <glyph glyph-name="asciitilde" unicode="~" horiz-adv-x="1021" 
d="M922 1395l96 -101q-77 -129 -140 -182t-141 -53q-42 0 -76.5 11t-156.5 63l-90 38q-79 35 -119 35q-55 0 -96.5 -38t-100.5 -142l-94 102q77 132 141.5 187t143.5 55q44 0 95 -16t159 -64q101 -44 133.5 -55.5t56.5 -11.5q51 0 93.5 39t95.5 133z" />
    <glyph glyph-name="nbspace" unicode="&#xa0;" horiz-adv-x="491" 
 />
    <glyph glyph-name="exclamdown" unicode="&#xa1;" horiz-adv-x="409" 
d="M209 879q-58 0 -94.5 35.5t-36.5 91.5q0 52 33 86t84 34q54 0 94.5 -35.5t40.5 -84.5q0 -51 -36.5 -89t-84.5 -38zM285 616l61 -792v-10q0 -46 -34.5 -71.5t-98.5 -25.5q-78 0 -112.5 29.5t-34.5 95.5q2 8 2 13l51 768v10q0 90 80 90q44 0 63 -23t23 -84z" />
    <glyph glyph-name="cent" unicode="&#xa2;" horiz-adv-x="903" 
d="M498 705q-24 6 -35 6q-71 0 -118.5 -58.5t-47.5 -144.5q0 -129 61 -211l41 -57zM535 877l26 129q13 61 53 61q22 0 36 -16.5t14 -42.5q0 -3 -1 -9.5t-1 -9.5l-29 -129q95 -38 139.5 -79t44.5 -91q0 -46 -37 -81.5t-84 -35.5q-22 0 -32 7q-16 8 -58 47q-1 3 -3 4.5t-6 3.5
t-7 4l-103 -471q26 -14 41 -17.5t43 -3.5q58 0 91 23l65 53q49 39 84 39q17 0 30 -14.5t13 -34.5q0 -32 -44.5 -77t-109.5 -79q-54 -27 -111.5 -43t-94.5 -16q-23 0 -41 2l-50 -188q-14 -66 -45 -66q-36 0 -36 49q0 5 1 16t1 17l30 190q-55 21 -84 39.5t-69 55.5
q-71 63 -103 129.5t-32 150.5q0 56 13.5 114t35.5 93q78 127 286 244q35 20 61 26.5t73 6.5z" />
    <glyph glyph-name="sterling" unicode="&#xa3;" horiz-adv-x="1011" 
d="M248 479h6q43 0 58.5 17t27.5 79l43 238q23 131 31 154q16 59 59 116q55 76 138 123t163 47q50 0 80.5 -27.5t30.5 -72.5q0 -47 -28.5 -78.5t-74.5 -32.5l-98 -6q-28 -2 -47 -30.5t-25 -77.5l-30 -219l-33 -158q-2 -6 -2 -19q0 -35 9 -44t44 -9h6h10q74 0 113 -22.5
t39 -65.5q0 -88 -125 -88h-84q-51 0 -68 -20.5t-36 -102.5l-27 -123v-10q-2 -74 80 -117t223 -43q36 0 90 13q94 20 115 20q18 0 29.5 -9.5t11.5 -23.5q0 -24 -23 -51.5t-59 -46.5q-54 -29 -125.5 -48.5t-124.5 -19.5q-57 0 -130 19.5t-130 50.5q-23 14 -45.5 25.5t-36 18.5
t-16.5 9q-29 11 -62 11q-20 0 -55 -7q-40 -4 -45 -4q-20 0 -33.5 13.5t-13.5 33.5q0 24 37 58q57 51 100 148.5t43 172.5q0 32 -16 35l-60 6q-22 1 -38.5 26t-16.5 54q0 88 111 88h10z" />
    <glyph glyph-name="currency" unicode="&#xa4;" horiz-adv-x="1363" 
d="M684 1063q-128 0 -217.5 -89.5t-89.5 -217.5t89.5 -219t215.5 -91t215.5 91t89.5 219q0 126 -89.5 216.5t-213.5 90.5zM70 268l202 203q-94 134 -94 285q0 80 22.5 147t73.5 137l-206 207l118 119l207 -207q136 96 289 96t287 -92l202 201l117 -119l-201 -201
q52 -72 75.5 -140t23.5 -150q0 -79 -22 -145.5t-72 -137.5l202 -203l-116 -118l-203 202q-134 -98 -293 -98q-78 0 -146.5 23t-144.5 75l-205 -202z" />
    <glyph glyph-name="yen" unicode="&#xa5;" horiz-adv-x="1064" 
d="M776 786h232v-131h-297l-66 -116h363v-131h-363v-408h-223v408h-359v131h355l-64 114h-293v133h226l-301 578h250l299 -635l299 635h245z" />
    <glyph glyph-name="section" unicode="&#xa7;" horiz-adv-x="1054" 
d="M350 795q-125 -42 -125 -152q0 -57 59 -106t251 -150q24 -12 53.5 -27.5t32.5 -17.5q41 -28 55 -33q2 -1 4.5 -2t7 -3t8.5 -3q59 19 93 59t34 89q0 58 -62.5 113t-223.5 138l-99 50l-65 36zM918 1042h-197q-6 92 -54.5 140.5t-136.5 48.5q-75 0 -121.5 -38t-46.5 -99
q0 -57 35.5 -91.5t157.5 -97.5q168 -86 251 -135.5t128 -91.5q84 -81 84 -199q0 -94 -54.5 -167t-148.5 -107q58 -52 82.5 -101t24.5 -114q0 -142 -109.5 -232t-282.5 -90q-187 0 -296 98t-109 265v10h197q9 -103 59.5 -153t146.5 -50q82 0 131.5 41t49.5 109q0 55 -52 105
t-174 112l-129 63q-135 68 -196 116t-92 108t-31 131q0 98 53.5 169t151.5 105q-47 47 -67.5 92.5t-20.5 104.5q0 133 106 218t272 85q175 0 280 -96t108 -259z" />
    <glyph glyph-name="dieresis" unicode="&#xa8;" horiz-adv-x="651" 
d="M623 1186q-3 -49 -39 -80t-90 -31q-53 0 -95.5 33.5t-42.5 75.5q0 41 39.5 72.5t89.5 31.5q37 0 71 -17.5t56 -47.5q11 -15 11 -35v-2zM293 1194q-5 -50 -40 -80.5t-89 -30.5t-95.5 33t-41.5 76q0 41 39 72.5t90 31.5q67 0 118 -57q19 -25 19 -41v-4z" />
    <glyph glyph-name="copyright" unicode="&#xa9;" horiz-adv-x="1581" 
d="M1182 606q-12 -157 -115 -249.5t-264 -92.5q-181 0 -292.5 118t-111.5 310q0 189 114.5 308.5t295.5 119.5q149 0 251.5 -83.5t113.5 -211.5h-156q-17 79 -72 121.5t-141 42.5q-112 0 -179 -81t-67 -216q0 -136 66.5 -216.5t179.5 -80.5q94 0 150.5 55t68.5 156h158z
M788 1276q-120 0 -229 -47t-187.5 -126.5t-124.5 -189.5t-46 -231t46 -231t124.5 -189.5t187.5 -126.5t229 -47q158 0 292.5 79.5t213 216.5t78.5 298t-78.5 298t-213 216.5t-292.5 79.5zM791 1395q145 0 277.5 -56.5t228 -152t151.5 -227.5t55 -277q0 -193 -95.5 -357
t-259.5 -259t-357 -95q-146 0 -278 56.5t-228 151.5t-152.5 226.5t-56.5 276.5t56.5 277t152.5 227.5t228.5 152t277.5 56.5z" />
    <glyph glyph-name="ordfeminine" unicode="&#xaa;" horiz-adv-x="739" 
d="M487 1075q-26 -14 -69 -20l-60 -6q-71 -9 -103 -31.5t-32 -63.5t28 -64.5t77 -23.5q78 0 118.5 43.5t40.5 126.5v39zM688 662v-97h-612v97h612zM653 784h-149q-7 17 -10 31l-2 14l-5 19q-56 -48 -95.5 -64t-100.5 -16q-103 0 -160 47.5t-57 132.5t63 130.5t199 58.5
q48 5 71.5 8t43 7t25.5 11.5t8.5 15.5t2.5 25q0 90 -118 90q-62 0 -91 -24t-38 -82h-138q15 207 273 207q133 0 194.5 -48.5t61.5 -152.5v-29v-75q-2 -16 -2 -76v-58q0 -74 4.5 -106t19.5 -66z" />
    <glyph glyph-name="guillemotleft" unicode="&#xab;" horiz-adv-x="1050" 
d="M483 442l318 441q17 20 49 20q41 0 72.5 -28t31.5 -64q0 -16 -10 -29l-248 -340l248 -329q10 -13 10 -29q0 -35 -32 -62.5t-72 -27.5q-34 0 -49 18zM82 442l317 441q17 20 50 20q41 0 72.5 -28t31.5 -64q0 -16 -10 -29l-248 -340l248 -329q10 -13 10 -29q0 -35 -32 -62.5
t-72 -27.5q-35 0 -50 18z" />
    <glyph glyph-name="logicalnot" unicode="&#xac;" 
d="M856 0v408h-838v149h990v-557h-152z" />
    <glyph glyph-name="macron" unicode="&#xaf;" horiz-adv-x="616" 
d="M471 1143h-354q-35 0 -62.5 21.5t-27.5 49.5q0 41 30 59.5t97 18.5h286q84 0 117 -16.5t33 -58.5q0 -34 -32 -54t-87 -20z" />
    <glyph glyph-name="degree" unicode="&#xb0;" 
d="M510 1272q-78 0 -132.5 -55.5t-53.5 -133.5q0 -78 54.5 -133t131.5 -55q78 0 133 55t55 133t-55 133.5t-133 55.5zM512 1395q133 0 227.5 -91.5t94.5 -220.5t-94 -220t-228 -91t-229 91t-95 220t95 220.5t229 91.5z" />
    <glyph glyph-name="plusminus" unicode="&#xb1;" 
d="M16 279h990v-168h-990v168zM16 901h412v387h168v-387h410v-166h-410v-368h-166v366h-414v168z" />
    <glyph glyph-name="acute" unicode="&#xb4;" horiz-adv-x="358" 
d="M293 1198l-76 -55q-113 -82 -162 -82q-15 0 -21.5 7t-6.5 24q0 195 141 198h43h20q101 0 101 -47q0 -14 -39 -45z" />
    <glyph glyph-name="mu" unicode="&#xb5;" 
d="M76 -348v1341h203v-542q0 -151 58.5 -229.5t170.5 -78.5q107 0 169 85t62 233v532h205v-993h-203v139q-46 -90 -99.5 -128t-135.5 -38q-77 0 -129 33t-98 109v-463h-203z" />
    <glyph glyph-name="paragraph" unicode="&#xb6;" horiz-adv-x="1204" 
d="M510 -190v845q-12 -2 -29 -2q-163 0 -265.5 98t-102.5 255q0 118 61 207.5t164 121.5q109 33 240 33h489v-100h-98v-1458h-133v1456h-189v-1456h-137z" />
    <glyph glyph-name="periodcentered" unicode="&#xb7;" horiz-adv-x="751" 
d="M371 721q61 0 105 -35.5t44 -85.5q0 -43 -39.5 -75.5t-93.5 -32.5q-57 0 -99 35.5t-42 82.5q0 44 37 77.5t88 33.5z" />
    <glyph glyph-name="cedilla" unicode="&#xb8;" horiz-adv-x="346" 
d="M137 59h121q12 -44 39 -118q22 -61 22 -88q0 -40 -36.5 -70.5t-83.5 -30.5q-43 0 -97 29q-75 46 -75 86q0 24 26 24q15 0 21 -4l41 -18q16 -8 37 -8q22 0 34.5 12.5t12.5 34.5q0 28 -12 57t-50 94z" />
    <glyph glyph-name="ordmasculine" unicode="&#xba;" horiz-adv-x="774" 
d="M385 1286q-74 0 -117 -55t-43 -150t43 -148.5t119 -53.5q75 0 117.5 53.5t42.5 148.5t-43.5 150t-118.5 55zM702 662v-97h-614v97h614zM389 1395q137 0 221 -86.5t84 -227.5t-84.5 -227t-222.5 -86q-139 0 -224 86t-85 227t85.5 227.5t225.5 86.5z" />
    <glyph glyph-name="guillemotright" unicode="&#xbb;" horiz-adv-x="1050" 
d="M569 442l-319 -430q-15 -18 -47 -18q-41 0 -74 27.5t-33 62.5q0 16 10 29l248 329l-248 340q-10 13 -10 29q0 35 33 63.5t74 28.5q30 0 47 -20zM971 442l-320 -430q-15 -18 -49 -18q-40 0 -72 27.5t-32 62.5q0 16 10 29l248 329l-248 340q-10 13 -10 29q0 35 32.5 63.5
t73.5 28.5q30 0 47 -20z" />
    <glyph glyph-name="questiondown" unicode="&#xbf;" horiz-adv-x="731" 
d="M379 879q-54 0 -91.5 35t-37.5 85q0 49 37 86t86 37q51 0 86 -36.5t35 -90.5q0 -50 -33 -83t-82 -33zM88 141l117 166q69 94 69 195v10q-2 72 -2 119q0 88 95 88q71 0 99 -32t28 -114q0 -141 -37.5 -242t-132.5 -216q-56 -70 -56 -111q0 -38 23 -77.5t57 -61.5
q20 -8 33 -8q37 0 108 49q121 86 164 86q19 0 31 -14.5t12 -36.5q0 -43 -45 -88t-141 -99q-75 -41 -150 -41q-69 0 -120 24.5t-111 86.5q-92 96 -92 172q0 34 14 74.5t37 70.5z" />
    <glyph glyph-name="Agrave" unicode="&#xc0;" horiz-adv-x="1175" 
d="M844 1139l289 -895q36 -107 36 -138q0 -38 -37.5 -69t-84.5 -31q-43 0 -78.5 26t-48.5 68l-318 977q-12 40 -19.5 52t-19.5 12q-52 0 -121 -183l-139 -376q-31 -85 -31 -160q0 -78 63.5 -133.5t153.5 -55.5q38 0 73 14t54 36l84 100q13 16 37 16q22 0 42.5 -13.5
t31.5 -33.5q1 -5 2.5 -9t1.5 -7q0 -22 -24 -62q-66 -108 -162 -198q-86 -80 -180 -80q-119 0 -256 76q-78 41 -124 99t-46 114q0 134 204 659q42 108 101 221q55 112 106.5 151.5t140.5 39.5q115 0 171.5 -45.5t97.5 -171.5zM524 1731l88 -13q66 -8 102 -58.5t36 -137.5
q0 -29 -31 -29t-73.5 24.5t-158.5 110.5q-47 36 -47 64q0 15 21.5 27t50.5 12h12z" />
    <glyph glyph-name="Aacute" unicode="&#xc1;" horiz-adv-x="1175" 
d="M844 1139l289 -895q36 -107 36 -138q0 -38 -37.5 -69t-84.5 -31q-43 0 -78.5 26t-48.5 68l-318 977q-12 40 -19.5 52t-19.5 12q-52 0 -121 -183l-139 -376q-31 -85 -31 -160q0 -78 63.5 -133.5t153.5 -55.5q38 0 73 14t54 36l84 100q13 16 37 16q22 0 42.5 -13.5
t31.5 -33.5q1 -5 2.5 -9t1.5 -7q0 -22 -24 -62q-66 -108 -162 -198q-86 -80 -180 -80q-119 0 -256 76q-78 41 -124 99t-46 114q0 134 204 659q42 108 101 221q55 112 106.5 151.5t140.5 39.5q115 0 171.5 -45.5t97.5 -171.5zM709 1630l-76 -55q-113 -82 -162 -82
q-29 0 -29 31q0 195 142 198h43h20q101 0 101 -47q0 -14 -39 -45z" />
    <glyph glyph-name="Acircumflex" unicode="&#xc2;" horiz-adv-x="1175" 
d="M844 1139l289 -895q36 -107 36 -138q0 -38 -37.5 -69t-84.5 -31q-43 0 -78.5 26t-48.5 68l-318 977q-12 40 -19.5 52t-19.5 12q-52 0 -121 -183l-139 -376q-31 -85 -31 -160q0 -78 63.5 -133.5t153.5 -55.5q38 0 73 14t54 36l84 100q13 16 37 16q22 0 42.5 -13.5
t31.5 -33.5q1 -5 2.5 -9t1.5 -7q0 -22 -24 -62q-66 -108 -162 -198q-86 -80 -180 -80q-119 0 -256 76q-78 41 -124 99t-46 114q0 134 204 659q42 108 101 221q55 112 106.5 151.5t140.5 39.5q115 0 171.5 -45.5t97.5 -171.5zM596 1622q-60 -34 -90 -57q-60 -47 -80.5 -59.5
t-38.5 -12.5q-15 0 -28 12t-13 27q0 19 19.5 56t50.5 75q34 49 82 74q50 24 98 24q104 0 166 -84l35 -45q49 -66 49 -92q0 -19 -13 -32t-32 -13q-35 0 -107 55q-12 8 -44.5 32.5t-53.5 39.5z" />
    <glyph glyph-name="Atilde" unicode="&#xc3;" horiz-adv-x="1175" 
d="M844 1139l289 -895q36 -107 36 -138q0 -38 -37.5 -69t-84.5 -31q-43 0 -78.5 26t-48.5 68l-318 977q-12 40 -19.5 52t-19.5 12q-52 0 -121 -183l-139 -376q-31 -85 -31 -160q0 -78 63.5 -133.5t153.5 -55.5q38 0 73 14t54 36l84 100q13 16 37 16q22 0 42.5 -13.5
t31.5 -33.5q1 -5 2.5 -9t1.5 -7q0 -22 -24 -62q-66 -108 -162 -198q-86 -80 -180 -80q-119 0 -256 76q-78 41 -124 99t-46 114q0 134 204 659q42 108 101 221q55 112 106.5 151.5t140.5 39.5q115 0 171.5 -45.5t97.5 -171.5zM545 1669l73 -20q24 -7 44 -7q34 0 69 15l39 16
q19 8 37 8q23 0 42 -20.5t19 -46.5q0 -17 -11.5 -31.5t-41.5 -38.5l-45 -35q-19 -16 -53 -16q-51 0 -113 27q-61 30 -80 30q-21 0 -41 -10q-90 -41 -110 -41q-19 0 -33 25q-16 29 -16 51q0 41 57 72q56 32 108 32q23 0 56 -10z" />
    <glyph glyph-name="Adieresis" unicode="&#xc4;" horiz-adv-x="1175" 
d="M844 1139l289 -895q36 -107 36 -138q0 -38 -37.5 -69t-84.5 -31q-43 0 -78.5 26t-48.5 68l-318 977q-12 40 -19.5 52t-19.5 12q-52 0 -121 -183l-139 -376q-31 -85 -31 -160q0 -78 63.5 -133.5t153.5 -55.5q38 0 73 14t54 36l84 100q13 16 37 16q22 0 42.5 -13.5
t31.5 -33.5q1 -5 2.5 -9t1.5 -7q0 -22 -24 -62q-66 -108 -162 -198q-86 -80 -180 -80q-119 0 -256 76q-78 41 -124 99t-46 114q0 134 204 659q42 108 101 221q55 112 106.5 151.5t140.5 39.5q115 0 171.5 -45.5t97.5 -171.5zM893 1604q-3 -49 -39 -80t-90 -31q-53 0 -95 33
t-42 76q0 41 39.5 72.5t89.5 31.5q37 0 71 -17.5t56 -48.5q10 -13 10 -34v-2zM563 1612q-5 -50 -40 -80.5t-89 -30.5t-95.5 33t-41.5 76q0 41 39 72.5t90 31.5q68 0 119 -57q18 -24 18 -41v-4z" />
    <glyph glyph-name="Aring" unicode="&#xc5;" horiz-adv-x="1175" 
d="M844 1139l289 -895q36 -107 36 -138q0 -38 -37.5 -69t-84.5 -31q-43 0 -78.5 26t-48.5 68l-318 977q-12 40 -19.5 52t-19.5 12q-52 0 -121 -183l-139 -376q-31 -85 -31 -160q0 -78 63.5 -133.5t153.5 -55.5q38 0 73 14t54 36l84 100q13 16 37 16q22 0 42.5 -13.5
t31.5 -33.5q1 -5 2.5 -9t1.5 -7q0 -22 -24 -62q-66 -108 -162 -198q-86 -80 -180 -80q-119 0 -256 76q-78 41 -124 99t-46 114q0 134 204 659q42 108 101 221q55 112 106.5 151.5t140.5 39.5q115 0 171.5 -45.5t97.5 -171.5zM680 1655v2q0 10 -11.5 25t-27.5 26
q-22 14 -49 14q-32 0 -58 -20.5t-26 -46.5q0 -28 27 -50t61 -22q35 0 58 20t26 52zM795 1659q-6 -75 -59.5 -120.5t-135.5 -45.5q-80 0 -142.5 50t-62.5 114q0 62 59.5 110t135.5 48q100 0 176 -91q29 -37 29 -59v-6z" />
    <glyph glyph-name="AE" unicode="&#xc6;" horiz-adv-x="1816" 
d="M1057 1178q134 91 222.5 129.5t164.5 38.5q120 0 205.5 -54t85.5 -129q0 -49 -28.5 -79.5t-74.5 -30.5q-35 0 -67 15.5t-119 74.5q-55 39 -92 39q-95 0 -166.5 -105t-71.5 -246q0 -47 14 -59t68 -12h416q106 0 106 -90q0 -55 -33.5 -80t-107.5 -25h-387q-34 0 -56 -14.5
t-22 -36.5q0 -30 25.5 -102t58.5 -136q35 -67 90.5 -105t118.5 -38q50 0 91.5 19.5t139.5 87.5q50 34 80 34q23 0 40.5 -16.5t17.5 -38.5q0 -51 -138 -137l-49 -33q-75 -47 -194 -47q-183 0 -292.5 56.5t-189.5 191.5q-98 162 -98 358q0 101 37 273q-20 99 -30.5 146
t-20.5 76t-16.5 33.5t-18.5 4.5q-23 0 -53.5 -36t-83.5 -126l-246 -420q-53 -92 -53 -170q0 -64 55 -108.5t133 -44.5q81 0 131 47l105 100q16 16 32 16q17 0 35 -11t27 -26q8 -11 8 -28q0 -83 -207 -236q-79 -58 -125 -76t-114 -18q-137 0 -247 76.5t-110 171.5
q0 62 40 162t110 215q75 127 198 315q13 21 52.5 85t64.5 104q83 131 154.5 177t191.5 46q89 0 125.5 -34t67.5 -144z" />
    <glyph glyph-name="Ccedilla" unicode="&#xc7;" horiz-adv-x="1032" 
d="M641 -4q21 -74 29 -98q22 -54 22 -88q0 -40 -36 -69.5t-83 -29.5q-45 0 -96 29q-78 44 -78 84q0 12 8.5 19t20.5 7q6 0 18 -4l43 -20q20 -8 37 -8q22 0 34.5 13.5t12.5 35.5q0 27 -9.5 52.5t-39.5 76.5q-75 9 -115 21t-87 40q-130 76 -200.5 230.5t-70.5 363.5
q0 142 41 260.5t117 194.5q93 93 239.5 166.5t241.5 73.5q78 0 156 -40t119 -102q12 -21 12 -47q0 -46 -33.5 -79.5t-79.5 -33.5q-51 0 -131 66q-94 74 -133 74q-18 0 -54 -13t-63 -30q-52 -29 -76.5 -72t-44.5 -141q-30 -150 -30 -291q0 -207 88.5 -355.5t212.5 -148.5
q44 0 92.5 21t126.5 73q41 31 70 31q23 0 39 -17t16 -40q0 -33 -53 -72l-70 -49q-50 -37 -92.5 -54t-120.5 -30z" />
    <glyph glyph-name="Egrave" unicode="&#xc8;" horiz-adv-x="1046" 
d="M430 760h418q104 0 104 -90q0 -56 -33 -80.5t-108 -24.5h-387q-33 0 -54.5 -14.5t-21.5 -36.5q0 -31 26 -103.5t58 -134.5q35 -67 90.5 -105t118.5 -38q49 0 91.5 20t139.5 87q48 34 80 34q23 0 39.5 -16.5t16.5 -38.5q0 -53 -136 -137l-51 -33q-75 -47 -194 -47
q-180 0 -292.5 57t-184.5 185q-99 172 -99 385q0 136 44 271t110 206q68 68 217 154t258 86q115 0 202 -55.5t87 -127.5q0 -49 -29 -79.5t-74 -30.5q-35 0 -67 15.5t-119 74.5q-58 39 -94 39q-95 0 -165.5 -105t-70.5 -246q0 -47 13 -59t67 -12zM459 1720l88 -12
q66 -8 101.5 -58.5t35.5 -138.5q0 -28 -31 -28t-72.5 24.5t-158.5 110.5q-47 36 -47 63q0 15 21 27t50 12h13z" />
    <glyph glyph-name="Eacute" unicode="&#xc9;" horiz-adv-x="1046" 
d="M430 760h418q104 0 104 -90q0 -56 -33 -80.5t-108 -24.5h-387q-33 0 -54.5 -14.5t-21.5 -36.5q0 -31 26 -103.5t58 -134.5q35 -67 90.5 -105t118.5 -38q49 0 91.5 20t139.5 87q48 34 80 34q23 0 39.5 -16.5t16.5 -38.5q0 -53 -136 -137l-51 -33q-75 -47 -194 -47
q-180 0 -292.5 57t-184.5 185q-99 172 -99 385q0 136 44 271t110 206q68 68 217 154t258 86q115 0 202 -55.5t87 -127.5q0 -49 -29 -79.5t-74 -30.5q-35 0 -67 15.5t-119 74.5q-58 39 -94 39q-95 0 -165.5 -105t-70.5 -246q0 -47 13 -59t67 -12zM643 1620l-76 -55
q-113 -82 -161 -82q-15 0 -22 6.5t-7 23.5q0 196 141 199h43h21q100 0 100 -47q0 -14 -39 -45z" />
    <glyph glyph-name="Ecircumflex" unicode="&#xca;" horiz-adv-x="1046" 
d="M430 760h418q104 0 104 -90q0 -56 -33 -80.5t-108 -24.5h-387q-33 0 -54.5 -14.5t-21.5 -36.5q0 -31 26 -103.5t58 -134.5q35 -67 90.5 -105t118.5 -38q49 0 91.5 20t139.5 87q48 34 80 34q23 0 39.5 -16.5t16.5 -38.5q0 -53 -136 -137l-51 -33q-75 -47 -194 -47
q-180 0 -292.5 57t-184.5 185q-99 172 -99 385q0 136 44 271t110 206q68 68 217 154t258 86q115 0 202 -55.5t87 -127.5q0 -49 -29 -79.5t-74 -30.5q-35 0 -67 15.5t-119 74.5q-58 39 -94 39q-95 0 -165.5 -105t-70.5 -246q0 -47 13 -59t67 -12zM528 1612q-55 -31 -90 -58
q-59 -46 -79.5 -58.5t-39.5 -12.5q-15 0 -27.5 12t-12.5 27q0 19 19.5 56t49.5 75q33 48 82 73q52 25 98 25q104 0 166 -84l35 -45q49 -66 49 -92q0 -19 -13 -32t-32 -13q-34 0 -106 55q-12 9 -46 33.5t-53 38.5z" />
    <glyph glyph-name="Edieresis" unicode="&#xcb;" horiz-adv-x="1046" 
d="M430 760h418q104 0 104 -90q0 -56 -33 -80.5t-108 -24.5h-387q-33 0 -54.5 -14.5t-21.5 -36.5q0 -31 26 -103.5t58 -134.5q35 -67 90.5 -105t118.5 -38q49 0 91.5 20t139.5 87q48 34 80 34q23 0 39.5 -16.5t16.5 -38.5q0 -53 -136 -137l-51 -33q-75 -47 -194 -47
q-180 0 -292.5 57t-184.5 185q-99 172 -99 385q0 136 44 271t110 206q68 68 217 154t258 86q115 0 202 -55.5t87 -127.5q0 -49 -29 -79.5t-74 -30.5q-35 0 -67 15.5t-119 74.5q-58 39 -94 39q-95 0 -165.5 -105t-70.5 -246q0 -47 13 -59t67 -12zM827 1593q-3 -49 -39 -79.5
t-90 -30.5q-53 0 -95 33t-42 75q0 41 39.5 73t89.5 32q37 0 71 -17.5t56 -48.5q10 -13 10 -35v-2zM498 1602q-5 -50 -40 -80.5t-89 -30.5t-96 32.5t-42 75.5q0 41 39 73t90 32q68 0 119 -57q19 -25 19 -41v-4z" />
    <glyph glyph-name="Igrave" unicode="&#xcc;" horiz-adv-x="444" 
d="M358 1190v-1020q0 -89 -35.5 -130.5t-109.5 -41.5q-60 0 -93.5 39.5t-33.5 109.5l2 1057q0 152 129 152q77 0 109 -37t32 -129zM150 1731l88 -13q66 -8 101.5 -58t35.5 -138q0 -29 -31 -29t-72.5 24.5t-158.5 110.5q-47 36 -47 64q0 15 21 27t50 12h13z" />
    <glyph glyph-name="Iacute" unicode="&#xcd;" horiz-adv-x="444" 
d="M358 1190v-1020q0 -89 -35.5 -130.5t-109.5 -41.5q-60 0 -93.5 39.5t-33.5 109.5l2 1057q0 152 129 152q77 0 109 -37t32 -129zM334 1630l-76 -55q-113 -82 -162 -82q-15 0 -21.5 7t-6.5 24q0 195 141 198h43h20q101 0 101 -47q0 -14 -39 -45z" />
    <glyph glyph-name="Icircumflex" unicode="&#xce;" horiz-adv-x="444" 
d="M358 1190v-1020q0 -89 -35.5 -130.5t-109.5 -41.5q-60 0 -93.5 39.5t-33.5 109.5l2 1057q0 152 129 152q77 0 109 -37t32 -129zM223 1622q-60 -34 -90 -57q-60 -47 -80.5 -59.5t-38.5 -12.5q-15 0 -28 12t-13 27q0 19 19.5 56t50.5 75q34 49 82 74q50 24 98 24
q104 0 166 -84l35 -45q49 -66 49 -92q0 -19 -13 -32t-32 -13q-34 0 -106 55q-12 9 -46 33.5t-53 38.5z" />
    <glyph glyph-name="Idieresis" unicode="&#xcf;" horiz-adv-x="444" 
d="M358 1190v-1020q0 -89 -35.5 -130.5t-109.5 -41.5q-60 0 -93.5 39.5t-33.5 109.5l2 1057q0 152 129 152q77 0 109 -37t32 -129zM520 1604q-3 -49 -39 -80t-90 -31q-53 0 -95 33t-42 76q0 41 39.5 72.5t89.5 31.5q37 0 71 -17.5t56 -48.5q10 -13 10 -34v-2zM190 1612
q-5 -50 -40 -80.5t-89 -30.5t-95.5 33t-41.5 76q0 41 39 72.5t90 31.5q68 0 119 -57q18 -24 18 -41v-4z" />
    <glyph glyph-name="Ntilde" unicode="&#xd1;" horiz-adv-x="1134" 
d="M82 113v1022q0 141 21 180t98 39q52 0 104 -25q109 -53 241 -148.5t228 -191.5q42 -45 60 -45q14 0 14 43v254q0 107 92 107q62 0 87.5 -27.5t25.5 -93.5v-1086q0 -73 -25.5 -106t-79.5 -33q-66 0 -102.5 43.5t-36.5 122.5v313q0 110 -44.5 178.5t-201.5 200.5
q-103 87 -194 146q-24 16 -41 16q-37 0 -37 -113v-741q0 -95 -20.5 -129.5t-77.5 -34.5q-51 0 -81 29.5t-30 79.5zM514 1667l74 -20q24 -7 43 -7q35 0 69 15l39 16q19 8 37 8q23 0 42.5 -20.5t19.5 -46.5q0 -17 -11.5 -31.5t-42.5 -38.5l-45 -35q-19 -16 -53 -16
q-51 0 -113 27q-61 30 -79 30q-21 0 -41 -10q-90 -41 -111 -41q-19 0 -33 25q-16 29 -16 51q0 41 57 72q56 32 109 32q22 0 55 -10z" />
    <glyph glyph-name="Ograve" unicode="&#xd2;" horiz-adv-x="1157" 
d="M850 588l-2 53q-3 173 -20.5 261.5t-65.5 172.5q-32 58 -81 92.5t-99 34.5q-120 0 -194.5 -118.5t-74.5 -307.5q0 -149 29 -287.5t78 -226.5q28 -50 72 -77t96 -27q48 0 98 20.5t82 54.5q45 48 63.5 127.5t18.5 227.5zM553 0q-227 0 -364.5 179.5t-137.5 477.5
q0 232 77.5 374.5t260.5 248.5q124 70 217 70q106 0 226 -77t180 -183q92 -164 92 -381q0 -115 -24.5 -231t-65.5 -189q-34 -63 -137 -144q-113 -87 -178.5 -116t-145.5 -29zM506 1724l88 -12q66 -8 101.5 -58t35.5 -138q0 -29 -31 -29t-72.5 24.5t-158.5 110.5
q-47 36 -47 64q0 15 21.5 26.5t50.5 11.5h12z" />
    <glyph glyph-name="Oacute" unicode="&#xd3;" horiz-adv-x="1157" 
d="M850 588l-2 53q-3 173 -20.5 261.5t-65.5 172.5q-32 58 -81 92.5t-99 34.5q-120 0 -194.5 -118.5t-74.5 -307.5q0 -149 29 -287.5t78 -226.5q28 -50 72 -77t96 -27q48 0 98 20.5t82 54.5q45 48 63.5 127.5t18.5 227.5zM553 0q-227 0 -364.5 179.5t-137.5 477.5
q0 232 77.5 374.5t260.5 248.5q124 70 217 70q106 0 226 -77t180 -183q92 -164 92 -381q0 -115 -24.5 -231t-65.5 -189q-34 -63 -137 -144q-113 -87 -178.5 -116t-145.5 -29zM690 1624l-76 -55q-113 -82 -161 -82q-29 0 -29 31q0 195 141 198h43h21q100 0 100 -47
q0 -14 -39 -45z" />
    <glyph glyph-name="Ocircumflex" unicode="&#xd4;" horiz-adv-x="1157" 
d="M850 588l-2 53q-3 173 -20.5 261.5t-65.5 172.5q-32 58 -81 92.5t-99 34.5q-120 0 -194.5 -118.5t-74.5 -307.5q0 -149 29 -287.5t78 -226.5q28 -50 72 -77t96 -27q48 0 98 20.5t82 54.5q45 48 63.5 127.5t18.5 227.5zM553 0q-227 0 -364.5 179.5t-137.5 477.5
q0 232 77.5 374.5t260.5 248.5q124 70 217 70q106 0 226 -77t180 -183q92 -164 92 -381q0 -115 -24.5 -231t-65.5 -189q-34 -63 -137 -144q-113 -87 -178.5 -116t-145.5 -29zM578 1616q-64 -36 -91 -57q-61 -48 -80.5 -60t-37.5 -12q-15 0 -28 12t-13 27q0 19 19.5 56
t49.5 75q34 49 82 74q50 24 99 24q103 0 165 -84l35 -45q49 -66 49 -92q0 -19 -13 -32t-32 -13q-34 0 -106 55q-12 8 -44.5 32.5t-53.5 39.5z" />
    <glyph glyph-name="Otilde" unicode="&#xd5;" horiz-adv-x="1157" 
d="M850 588l-2 53q-3 173 -20.5 261.5t-65.5 172.5q-32 58 -81 92.5t-99 34.5q-120 0 -194.5 -118.5t-74.5 -307.5q0 -149 29 -287.5t78 -226.5q28 -50 72 -77t96 -27q48 0 98 20.5t82 54.5q45 48 63.5 127.5t18.5 227.5zM553 0q-227 0 -364.5 179.5t-137.5 477.5
q0 232 77.5 374.5t260.5 248.5q124 70 217 70q106 0 226 -77t180 -183q92 -164 92 -381q0 -115 -24.5 -231t-65.5 -189q-34 -63 -137 -144q-113 -87 -178.5 -116t-145.5 -29zM526 1663l74 -21q21 -6 43 -6q35 0 70 15l39 16q19 8 36 8q23 0 42.5 -20.5t19.5 -46.5
q0 -17 -11.5 -31.5t-41.5 -38.5l-45 -35q-19 -16 -54 -16q-52 0 -112 26q-63 31 -80 31q-21 0 -41 -10q-90 -41 -111 -41q-18 0 -32 25q-17 31 -17 51q0 40 57 71q58 33 109 33q22 0 55 -10z" />
    <glyph glyph-name="Odieresis" unicode="&#xd6;" horiz-adv-x="1157" 
d="M850 588l-2 53q-3 173 -20.5 261.5t-65.5 172.5q-32 58 -81 92.5t-99 34.5q-120 0 -194.5 -118.5t-74.5 -307.5q0 -149 29 -287.5t78 -226.5q28 -50 72 -77t96 -27q48 0 98 20.5t82 54.5q45 48 63.5 127.5t18.5 227.5zM553 0q-227 0 -364.5 179.5t-137.5 477.5
q0 232 77.5 374.5t260.5 248.5q124 70 217 70q106 0 226 -77t180 -183q92 -164 92 -381q0 -115 -24.5 -231t-65.5 -189q-34 -63 -137 -144q-113 -87 -178.5 -116t-145.5 -29zM874 1597q-3 -49 -39 -79.5t-90 -30.5q-53 0 -95 33t-42 75q0 41 39.5 73t89.5 32q37 0 71 -17.5
t56 -48.5q10 -13 10 -35v-2zM545 1606q-5 -50 -40 -80.5t-89 -30.5t-95.5 33t-41.5 76q0 41 39 72.5t90 31.5q67 0 118 -57q19 -25 19 -41v-4z" />
    <glyph glyph-name="Oslash" unicode="&#xd8;" horiz-adv-x="1157" 
d="M754 1087q-44 63 -82 89t-84 26q-60 0 -124 -41.5t-93 -99.5q-58 -119 -58 -305q0 -92 9.5 -160t39.5 -186zM797 1012l-404 -697q52 -88 94 -122.5t97 -34.5q62 0 127 34t88 78q49 98 49 394q0 104 -9.5 170.5t-41.5 177.5zM266 98l-88 -151l-63 37l96 168
q-53 71 -77.5 117t-43.5 110q-39 127 -39 276q0 188 45 307.5t154 217.5q85 77 181 121.5t177 44.5q66 0 115.5 -16.5t130.5 -67.5l82 143l63 -37l-88 -154q57 -46 79.5 -78.5t53.5 -115.5q62 -173 62 -330q0 -101 -28.5 -223t-65.5 -182q-30 -55 -135 -140
q-177 -147 -320 -147q-77 0 -134.5 19.5t-156.5 80.5z" />
    <glyph glyph-name="Ugrave" unicode="&#xd9;" horiz-adv-x="1118" 
d="M788 584v628q0 65 32.5 104.5t86.5 39.5q64 0 99.5 -46.5t35.5 -129.5v-529q0 -219 -81 -365t-256 -243q-92 -51 -166 -51q-117 0 -239 63.5t-169 149.5q-25 44 -41 139t-16 191v634q0 102 30 143.5t103 41.5q61 0 94 -40t33 -112v-678v-3q0 -3 -0.5 -7.5t-1 -11
t-0.5 -16.5v-21v-16q0 -147 56 -229.5t155 -82.5q54 0 109 35.5t83 89.5q32 61 42.5 125.5t10.5 196.5zM487 1731l88 -13q66 -8 102 -58.5t36 -137.5q0 -29 -31 -29t-72.5 24.5t-158.5 110.5q-48 37 -48 64q0 15 21.5 27t50.5 12h12z" />
    <glyph glyph-name="Uacute" unicode="&#xda;" horiz-adv-x="1118" 
d="M788 584v628q0 65 32.5 104.5t86.5 39.5q64 0 99.5 -46.5t35.5 -129.5v-529q0 -219 -81 -365t-256 -243q-92 -51 -166 -51q-117 0 -239 63.5t-169 149.5q-25 44 -41 139t-16 191v634q0 102 30 143.5t103 41.5q61 0 94 -40t33 -112v-678v-3q0 -3 -0.5 -7.5t-1 -11
t-0.5 -16.5v-21v-16q0 -147 56 -229.5t155 -82.5q54 0 109 35.5t83 89.5q32 61 42.5 125.5t10.5 196.5zM672 1630l-76 -55q-113 -82 -162 -82q-15 0 -21.5 7t-6.5 24q0 195 141 198h43h20q101 0 101 -47q0 -14 -39 -45z" />
    <glyph glyph-name="Ucircumflex" unicode="&#xdb;" horiz-adv-x="1118" 
d="M788 584v628q0 65 32.5 104.5t86.5 39.5q64 0 99.5 -46.5t35.5 -129.5v-529q0 -219 -81 -365t-256 -243q-92 -51 -166 -51q-117 0 -239 63.5t-169 149.5q-25 44 -41 139t-16 191v634q0 102 30 143.5t103 41.5q61 0 94 -40t33 -112v-678v-3q0 -3 -0.5 -7.5t-1 -11
t-0.5 -16.5v-21v-16q0 -147 56 -229.5t155 -82.5q54 0 109 35.5t83 89.5q32 61 42.5 125.5t10.5 196.5zM557 1622q-60 -34 -90 -57q-60 -47 -80.5 -59.5t-38.5 -12.5q-15 0 -28 12t-13 27q0 19 19.5 56t50.5 75q34 49 82 74q50 24 98 24q104 0 166 -84l35 -45q49 -66 49 -92
q0 -19 -13 -32t-32 -13q-35 0 -107 55q-12 8 -44.5 32.5t-53.5 39.5z" />
    <glyph glyph-name="Udieresis" unicode="&#xdc;" horiz-adv-x="1118" 
d="M788 584v628q0 65 32.5 104.5t86.5 39.5q64 0 99.5 -46.5t35.5 -129.5v-529q0 -219 -81 -365t-256 -243q-92 -51 -166 -51q-117 0 -239 63.5t-169 149.5q-25 44 -41 139t-16 191v634q0 102 30 143.5t103 41.5q61 0 94 -40t33 -112v-678v-3q0 -3 -0.5 -7.5t-1 -11
t-0.5 -16.5v-21v-16q0 -147 56 -229.5t155 -82.5q54 0 109 35.5t83 89.5q32 61 42.5 125.5t10.5 196.5zM856 1604q-3 -49 -39 -80t-90 -31q-53 0 -95 33t-42 76q0 41 39.5 72.5t89.5 31.5q37 0 71 -17.5t56 -48.5q10 -13 10 -34v-2zM526 1612q-5 -50 -40 -80.5t-89 -30.5
t-95.5 33t-41.5 76q0 41 39 72.5t90 31.5q68 0 119 -57q18 -24 18 -41v-4z" />
    <glyph glyph-name="germandbls" unicode="&#xdf;" horiz-adv-x="1069" 
d="M698 692q125 -53 187 -97.5t96 -107.5q35 -68 35 -147q0 -152 -123.5 -252t-308.5 -100q-178 0 -178 71q0 44 21 61t77 17h31q88 0 141 53.5t53 141.5q0 143 -119 198q-87 42 -110 62t-23 51q0 36 45 78q102 98 130 139.5t28 95.5q0 111 -133 183q-75 41 -125 47h-4
q-34 0 -49 -30.5t-15 -96.5l-2 -803q0 -148 -20.5 -211t-100.5 -160q-116 -143 -204 -143q-34 0 -57 21t-23 53q0 22 15 46t65 81q45 51 58 96.5t13 153.5v894q0 53 23 107.5t57 79.5q30 24 90 41q134 41 197 41q112 0 238 -72.5t194 -175.5q37 -58 37 -125
q0 -60 -34.5 -111t-123.5 -120q-9 -7 -35.5 -27t-42.5 -33z" />
    <glyph glyph-name="agrave" unicode="&#xe0;" horiz-adv-x="901" 
d="M604 385l-84 2l-59 2l-12 2q-166 0 -166 -112q0 -50 40.5 -88.5t94.5 -38.5q42 0 89.5 26.5t76.5 65.5q20 29 20 63v78zM602 88q-160 -98 -242 -98q-68 0 -151 39t-125 92q-15 17 -26 47t-11 55q0 73 54.5 147t148.5 128q104 61 178 61h88h29h8h4q23 0 33 7t10 24v67
q0 47 -31.5 76t-83.5 29q-35 0 -67.5 -13t-79.5 -47q-125 -86 -168 -86q-20 0 -33.5 15.5t-13.5 38.5q0 25 19.5 47.5t64.5 50.5l63 39q68 41 119.5 56.5t124.5 15.5q148 0 237 -64t89 -170v-518q0 -66 -26.5 -95.5t-86.5 -29.5q-47 0 -73 17.5t-52 68.5zM373 1253l88 -12
q66 -8 101.5 -58.5t35.5 -138.5q0 -28 -31 -28t-72.5 24.5t-158.5 110.5q-47 36 -47 63q0 15 21 27t50 12h13z" />
    <glyph glyph-name="aacute" unicode="&#xe1;" horiz-adv-x="901" 
d="M604 385l-84 2l-59 2l-12 2q-166 0 -166 -112q0 -50 40.5 -88.5t94.5 -38.5q42 0 89.5 26.5t76.5 65.5q20 29 20 63v78zM602 88q-160 -98 -242 -98q-68 0 -151 39t-125 92q-15 17 -26 47t-11 55q0 73 54.5 147t148.5 128q104 61 178 61h88h29h8h4q23 0 33 7t10 24v67
q0 47 -31.5 76t-83.5 29q-35 0 -67.5 -13t-79.5 -47q-125 -86 -168 -86q-20 0 -33.5 15.5t-13.5 38.5q0 25 19.5 47.5t64.5 50.5l63 39q68 41 119.5 56.5t124.5 15.5q148 0 237 -64t89 -170v-518q0 -66 -26.5 -95.5t-86.5 -29.5q-47 0 -73 17.5t-52 68.5zM557 1153l-76 -55
q-113 -82 -162 -82q-15 0 -21.5 7t-6.5 24q0 195 141 198h43h21q100 0 100 -47q0 -14 -39 -45z" />
    <glyph glyph-name="acircumflex" unicode="&#xe2;" horiz-adv-x="901" 
d="M604 385l-84 2l-59 2l-12 2q-166 0 -166 -112q0 -50 40.5 -88.5t94.5 -38.5q42 0 89.5 26.5t76.5 65.5q20 29 20 63v78zM602 88q-160 -98 -242 -98q-68 0 -151 39t-125 92q-15 17 -26 47t-11 55q0 73 54.5 147t148.5 128q104 61 178 61h88h29h8h4q23 0 33 7t10 24v67
q0 47 -31.5 76t-83.5 29q-35 0 -67.5 -13t-79.5 -47q-125 -86 -168 -86q-20 0 -33.5 15.5t-13.5 38.5q0 25 19.5 47.5t64.5 50.5l63 39q68 41 119.5 56.5t124.5 15.5q148 0 237 -64t89 -170v-518q0 -66 -26.5 -95.5t-86.5 -29.5q-47 0 -73 17.5t-52 68.5zM442 1145
q-55 -31 -90 -58q-59 -46 -79.5 -58.5t-39.5 -12.5q-15 0 -27.5 12t-12.5 27q0 19 19.5 56t49.5 75q34 49 82 74q50 24 98 24q104 0 166 -84l35 -45q49 -66 49 -92q0 -19 -13 -32t-32 -13q-34 0 -106 55q-12 9 -46 33.5t-53 38.5z" />
    <glyph glyph-name="atilde" unicode="&#xe3;" horiz-adv-x="901" 
d="M604 385l-84 2l-59 2l-12 2q-166 0 -166 -112q0 -50 40.5 -88.5t94.5 -38.5q42 0 89.5 26.5t76.5 65.5q20 29 20 63v78zM602 88q-160 -98 -242 -98q-68 0 -151 39t-125 92q-15 17 -26 47t-11 55q0 73 54.5 147t148.5 128q104 61 178 61h88h29h8h4q23 0 33 7t10 24v67
q0 47 -31.5 76t-83.5 29q-35 0 -67.5 -13t-79.5 -47q-125 -86 -168 -86q-20 0 -33.5 15.5t-13.5 38.5q0 25 19.5 47.5t64.5 50.5l63 39q68 41 119.5 56.5t124.5 15.5q148 0 237 -64t89 -170v-518q0 -66 -26.5 -95.5t-86.5 -29.5q-47 0 -73 17.5t-52 68.5zM391 1192l74 -21
q21 -6 43 -6q36 0 70 15l38 16q19 8 37 8q23 0 42.5 -20.5t19.5 -46.5q0 -17 -11.5 -31.5t-41.5 -38.5l-46 -35q-19 -16 -53 -16q-52 0 -112 26q-63 31 -80 31q-21 0 -41 -10q-90 -41 -111 -41q-19 0 -33 25q-16 29 -16 51q0 40 57 71q58 33 109 33q22 0 55 -10z" />
    <glyph glyph-name="adieresis" unicode="&#xe4;" horiz-adv-x="901" 
d="M604 385l-84 2l-59 2l-12 2q-166 0 -166 -112q0 -50 40.5 -88.5t94.5 -38.5q42 0 89.5 26.5t76.5 65.5q20 29 20 63v78zM602 88q-160 -98 -242 -98q-68 0 -151 39t-125 92q-15 17 -26 47t-11 55q0 73 54.5 147t148.5 128q104 61 178 61h88h29h8h4q23 0 33 7t10 24v67
q0 47 -31.5 76t-83.5 29q-35 0 -67.5 -13t-79.5 -47q-125 -86 -168 -86q-20 0 -33.5 15.5t-13.5 38.5q0 25 19.5 47.5t64.5 50.5l63 39q68 41 119.5 56.5t124.5 15.5q148 0 237 -64t89 -170v-518q0 -66 -26.5 -95.5t-86.5 -29.5q-47 0 -73 17.5t-52 68.5zM741 1126
q-3 -49 -39 -79.5t-90 -30.5q-53 0 -95 33t-42 75q0 41 39.5 73t89.5 32q37 0 71 -17.5t56 -48.5q10 -13 10 -35v-2zM412 1135q-5 -50 -40 -80.5t-89 -30.5t-96 33t-42 76q0 41 39 72.5t90 31.5q68 0 119 -57q19 -25 19 -41v-4z" />
    <glyph glyph-name="aring" unicode="&#xe5;" horiz-adv-x="901" 
d="M604 385l-84 2l-59 2l-12 2q-166 0 -166 -112q0 -50 40.5 -88.5t94.5 -38.5q42 0 89.5 26.5t76.5 65.5q20 29 20 63v78zM602 88q-160 -98 -242 -98q-68 0 -151 39t-125 92q-15 17 -26 47t-11 55q0 73 54.5 147t148.5 128q104 61 178 61h88h29h8h4q23 0 33 7t10 24v67
q0 47 -31.5 76t-83.5 29q-35 0 -67.5 -13t-79.5 -47q-125 -86 -168 -86q-20 0 -33.5 15.5t-13.5 38.5q0 25 19.5 47.5t64.5 50.5l63 39q68 41 119.5 56.5t124.5 15.5q148 0 237 -64t89 -170v-518q0 -66 -26.5 -95.5t-86.5 -29.5q-47 0 -73 17.5t-52 68.5zM528 1178v2
q0 10 -11.5 25t-27.5 26q-22 14 -49 14q-32 0 -58 -20.5t-26 -46.5q0 -28 27 -50t61 -22q35 0 58 20t26 52zM643 1182q-6 -75 -59 -120.5t-135 -45.5q-80 0 -142.5 50t-62.5 114q0 62 59 109.5t135 47.5q101 0 176 -90q29 -37 29 -59v-6z" />
    <glyph glyph-name="ae" unicode="&#xe6;" horiz-adv-x="1447" 
d="M903 463l199 121q20 14 20 30q0 41 -53 70q-35 18 -68 18q-67 0 -114 -60t-47 -146q0 -54 18 -54q10 0 45 21zM618 385l-86 2l-59 2l-12 2q-166 0 -166 -112q0 -49 41 -88t94 -39q43 0 90 26t76 66q22 31 22 63v78zM811 764q91 62 148.5 86t115.5 24q45 0 91 -15.5
t71 -39.5l76 -78l53 -36q37 -24 37 -62q0 -27 -14 -37q-2 -2 -46 -28l-380 -234q-52 -34 -52 -53q0 -24 41 -76q58 -74 142 -74q52 0 100 31l84 59q44 27 68 27q25 0 39 -12.5t14 -34.5q0 -35 -55.5 -83.5t-151.5 -98.5q-60 -29 -150 -29q-108 0 -189.5 36.5t-156.5 117.5
q-96 -90 -171 -127t-160 -37q-116 0 -210 71.5t-94 161.5q0 74 54.5 149t144.5 126q111 63 225 63q22 0 45 -2q14 -2 37 -2q45 0 45 33v67q0 47 -30.5 76t-81.5 29q-35 0 -67.5 -13t-82.5 -47q-122 -86 -166 -86q-20 0 -33.5 15.5t-13.5 38.5q0 47 84 98l64 39
q65 40 115.5 56t113.5 16q114 0 169.5 -21.5t127.5 -93.5z" />
    <glyph glyph-name="ccedilla" unicode="&#xe7;" horiz-adv-x="903" 
d="M522 0q24 -73 33 -96q23 -64 23 -90q0 -38 -36 -68.5t-83 -30.5q-46 0 -97 29q-77 47 -77 84q0 27 28 27q11 0 19 -5l41 -18q16 -8 39 -8q22 0 34.5 12.5t12.5 34.5q0 28 -10.5 54.5t-42.5 80.5q-158 47 -248 150.5t-90 238.5q0 56 13.5 114t35.5 93q52 86 166 166
q89 64 138.5 87.5t98.5 23.5q89 0 168 -38t117 -100q14 -20 14 -49q0 -46 -37 -81.5t-84 -35.5q-25 0 -43.5 11.5t-52.5 46.5q-74 80 -133 80q-72 0 -121 -55.5t-49 -137.5q0 -149 85 -259.5t200 -110.5q52 0 80 22l65 53q49 39 84 39q17 0 30 -14.5t13 -34.5
q0 -33 -44.5 -78t-111.5 -78q-54 -29 -86.5 -39.5t-91.5 -19.5z" />
    <glyph glyph-name="egrave" unicode="&#xe8;" horiz-adv-x="909" 
d="M360 463l199 121q23 14 23 30q0 41 -54 70q-34 18 -67 18q-69 0 -116.5 -60t-47.5 -148q0 -52 20 -52q13 0 43 21zM772 741l53 -36q37 -26 37 -64q0 -25 -16 -35q-6 -6 -43 -28l-381 -234q-51 -34 -51 -53q0 -28 41 -76q55 -74 141 -74q52 0 100 31l82 59q43 27 70 27
q25 0 39 -12.5t14 -34.5q0 -35 -56 -83.5t-151 -98.5q-60 -29 -149 -29q-121 0 -224.5 54t-164 147t-60.5 202q0 81 38 161t102 138q60 55 172 119q52 31 87.5 42t79.5 11q45 0 91 -15.5t71 -39.5zM387 1249l88 -12q66 -8 101.5 -58.5t35.5 -138.5q0 -28 -30 -28
q-31 0 -73.5 24.5t-158.5 110.5q-47 36 -47 63q0 15 21.5 27t50.5 12h12z" />
    <glyph glyph-name="eacute" unicode="&#xe9;" horiz-adv-x="909" 
d="M360 463l199 121q23 14 23 30q0 41 -54 70q-34 18 -67 18q-69 0 -116.5 -60t-47.5 -148q0 -52 20 -52q13 0 43 21zM772 741l53 -36q37 -26 37 -64q0 -25 -16 -35q-6 -6 -43 -28l-381 -234q-51 -34 -51 -53q0 -28 41 -76q55 -74 141 -74q52 0 100 31l82 59q43 27 70 27
q25 0 39 -12.5t14 -34.5q0 -35 -56 -83.5t-151 -98.5q-60 -29 -149 -29q-121 0 -224.5 54t-164 147t-60.5 202q0 81 38 161t102 138q60 55 172 119q52 31 87.5 42t79.5 11q45 0 91 -15.5t71 -39.5zM571 1149l-75 -55q-113 -82 -162 -82q-15 0 -22 6.5t-7 23.5q0 196 141 199
h43h21q100 0 100 -47q0 -14 -39 -45z" />
    <glyph glyph-name="ecircumflex" unicode="&#xea;" horiz-adv-x="909" 
d="M360 463l199 121q23 14 23 30q0 41 -54 70q-34 18 -67 18q-69 0 -116.5 -60t-47.5 -148q0 -52 20 -52q13 0 43 21zM772 741l53 -36q37 -26 37 -64q0 -25 -16 -35q-6 -6 -43 -28l-381 -234q-51 -34 -51 -53q0 -28 41 -76q55 -74 141 -74q52 0 100 31l82 59q43 27 70 27
q25 0 39 -12.5t14 -34.5q0 -35 -56 -83.5t-151 -98.5q-60 -29 -149 -29q-121 0 -224.5 54t-164 147t-60.5 202q0 81 38 161t102 138q60 55 172 119q52 31 87.5 42t79.5 11q45 0 91 -15.5t71 -39.5zM457 1141q-55 -31 -90 -58q-59 -46 -79.5 -58.5t-39.5 -12.5q-15 0 -28 12
t-13 27q0 19 19.5 56t49.5 75q33 48 82 73q52 25 99 25q104 0 166 -84l34 -45q50 -67 50 -92q0 -19 -13 -32t-32 -13q-35 0 -107 55q-12 8 -44.5 32.5t-53.5 39.5z" />
    <glyph glyph-name="edieresis" unicode="&#xeb;" horiz-adv-x="909" 
d="M360 463l199 121q23 14 23 30q0 41 -54 70q-34 18 -67 18q-69 0 -116.5 -60t-47.5 -148q0 -52 20 -52q13 0 43 21zM772 741l53 -36q37 -26 37 -64q0 -25 -16 -35q-6 -6 -43 -28l-381 -234q-51 -34 -51 -53q0 -28 41 -76q55 -74 141 -74q52 0 100 31l82 59q43 27 70 27
q25 0 39 -12.5t14 -34.5q0 -35 -56 -83.5t-151 -98.5q-60 -29 -149 -29q-121 0 -224.5 54t-164 147t-60.5 202q0 81 38 161t102 138q60 55 172 119q52 31 87.5 42t79.5 11q45 0 91 -15.5t71 -39.5zM756 1122q-3 -49 -39 -79.5t-90 -30.5q-53 0 -95.5 33t-42.5 75
q0 41 39.5 73t89.5 32q37 0 71 -17.5t56 -48.5q11 -15 11 -35v-2zM426 1130q-5 -50 -40 -80t-89 -30t-95.5 32.5t-41.5 75.5q0 41 39 73t90 32q68 0 119 -57q18 -24 18 -41v-5z" />
    <glyph glyph-name="igrave" unicode="&#xec;" horiz-adv-x="403" 
d="M336 735v-629q0 -43 -36.5 -74.5t-86.5 -31.5q-59 0 -94 39.5t-35 105.5v590q0 54 35 87.5t92 33.5q56 0 90.5 -33.5t34.5 -87.5zM139 1231l88 -12q66 -8 102 -59t36 -138q0 -29 -31 -29t-73.5 24.5t-158.5 110.5q-47 36 -47 64q0 15 21.5 27t50.5 12h12z" />
    <glyph glyph-name="iacute" unicode="&#xed;" horiz-adv-x="403" 
d="M336 735v-629q0 -43 -36.5 -74.5t-86.5 -31.5q-59 0 -94 39.5t-35 105.5v590q0 54 35 87.5t92 33.5q56 0 90.5 -33.5t34.5 -87.5zM324 1130l-76 -55q-113 -82 -162 -82q-29 0 -29 31q0 96 36.5 146.5t105.5 52.5h43h20q100 0 100 -47q0 -16 -38 -46z" />
    <glyph glyph-name="icircumflex" unicode="&#xee;" horiz-adv-x="403" 
d="M336 735v-629q0 -43 -36.5 -74.5t-86.5 -31.5q-59 0 -94 39.5t-35 105.5v590q0 54 35 87.5t92 33.5q56 0 90.5 -33.5t34.5 -87.5zM211 1122q-60 -34 -90 -57q-60 -47 -80.5 -59.5t-38.5 -12.5q-15 0 -28 12t-13 27q0 19 19.5 56t50.5 75q34 49 82 74q52 25 98 25
q104 0 166 -84l35 -45q49 -66 49 -93q0 -19 -13 -32t-32 -13q-34 0 -107 56q-13 9 -47 34t-51 37z" />
    <glyph glyph-name="idieresis" unicode="&#xef;" horiz-adv-x="403" 
d="M336 735v-629q0 -43 -36.5 -74.5t-86.5 -31.5q-59 0 -94 39.5t-35 105.5v590q0 54 35 87.5t92 33.5q56 0 90.5 -33.5t34.5 -87.5zM508 1104q-3 -49 -39 -80t-90 -31q-53 0 -95 33t-42 76q0 41 39.5 72.5t89.5 31.5q37 0 71 -17.5t56 -47.5q10 -13 10 -35v-2zM178 1112
q-5 -50 -40 -80.5t-89 -30.5t-95.5 33t-41.5 76q0 41 39 72.5t90 31.5q68 0 119 -57q18 -24 18 -41v-4z" />
    <glyph glyph-name="ntilde" unicode="&#xf1;" horiz-adv-x="919" 
d="M299 782q153 56 195 68t84 12q72 0 138 -41t103 -108q20 -35 27.5 -76t7.5 -115v-379q0 -75 -28.5 -109t-90.5 -34q-58 0 -85 37t-27 117v395q0 84 -28 128t-81 44q-91 0 -148 -66t-57 -170v-358q0 -60 -30.5 -94.5t-83.5 -34.5q-69 0 -99 36.5t-30 119.5v559
q0 78 29 113.5t95 35.5q40 0 64.5 -18t44.5 -62zM408 1176l73 -21q21 -6 43 -6q38 0 70 14l39 17q19 8 37 8q23 0 42 -21t19 -47q0 -17 -11 -31t-42 -38l-45 -35q-20 -17 -53 -17q-51 0 -113 27q-63 31 -80 31q-21 0 -41 -10q-90 -41 -110 -41q-19 0 -33 24q-17 31 -17 51
q0 41 58 72q58 33 108 33q23 0 56 -10z" />
    <glyph glyph-name="ograve" unicode="&#xf2;" horiz-adv-x="1017" 
d="M293 494q0 -146 79 -251.5t187 -105.5q78 0 131 66.5t53 165.5q0 140 -75 245t-176 105q-92 0 -145.5 -60.5t-53.5 -164.5zM565 864q157 0 271 -116t114 -277q0 -92 -39.5 -179t-104.5 -150.5t-152.5 -102.5t-180.5 -39q-101 0 -195.5 59.5t-152 156.5t-57.5 200
q0 123 65.5 221.5t188.5 161.5q53 27 124 46t119 19zM438 1239l88 -12q66 -8 102 -59t36 -138q0 -29 -31 -29t-72.5 24.5t-159.5 111.5q-47 36 -47 63q0 15 21.5 27t50.5 12h12z" />
    <glyph glyph-name="oacute" unicode="&#xf3;" horiz-adv-x="1017" 
d="M293 494q0 -146 79 -251.5t187 -105.5q78 0 131 66.5t53 165.5q0 140 -75 245t-176 105q-92 0 -145.5 -60.5t-53.5 -164.5zM565 864q157 0 271 -116t114 -277q0 -92 -39.5 -179t-104.5 -150.5t-152.5 -102.5t-180.5 -39q-101 0 -195.5 59.5t-152 156.5t-57.5 200
q0 123 65.5 221.5t188.5 161.5q53 27 124 46t119 19zM623 1139l-76 -56q-113 -82 -162 -82q-29 0 -29 31q0 96 36.5 146.5t105.5 52.5h43h20q101 0 101 -47q0 -14 -39 -45z" />
    <glyph glyph-name="ocircumflex" unicode="&#xf4;" horiz-adv-x="1017" 
d="M293 494q0 -146 79 -251.5t187 -105.5q78 0 131 66.5t53 165.5q0 140 -75 245t-176 105q-92 0 -145.5 -60.5t-53.5 -164.5zM565 864q157 0 271 -116t114 -277q0 -92 -39.5 -179t-104.5 -150.5t-152.5 -102.5t-180.5 -39q-101 0 -195.5 59.5t-152 156.5t-57.5 200
q0 123 65.5 221.5t188.5 161.5q53 27 124 46t119 19zM508 1130q-60 -34 -90 -57q-60 -47 -80.5 -59.5t-38.5 -12.5q-15 0 -28 12t-13 27q0 19 19.5 56t50.5 75q34 49 82 74q52 25 98 25q104 0 166 -84l35 -45q49 -66 49 -92q0 -19 -13 -32t-32 -13q-35 0 -107 55
q-13 9 -47 34t-51 37z" />
    <glyph glyph-name="otilde" unicode="&#xf5;" horiz-adv-x="1017" 
d="M293 494q0 -146 79 -251.5t187 -105.5q78 0 131 66.5t53 165.5q0 140 -75 245t-176 105q-92 0 -145.5 -60.5t-53.5 -164.5zM565 864q157 0 271 -116t114 -277q0 -92 -39.5 -179t-104.5 -150.5t-152.5 -102.5t-180.5 -39q-101 0 -195.5 59.5t-152 156.5t-57.5 200
q0 123 65.5 221.5t188.5 161.5q53 27 124 46t119 19zM457 1178l73 -21q21 -6 43 -6q38 0 70 14l39 17q19 8 37 8q23 0 42 -21t19 -47q0 -17 -11 -31t-42 -38l-45 -35q-20 -17 -53 -17q-51 0 -113 27q-63 31 -80 31q-21 0 -41 -10q-90 -41 -110 -41q-19 0 -33 24
q-16 29 -16 51q0 41 57 72q58 33 108 33q23 0 56 -10z" />
    <glyph glyph-name="odieresis" unicode="&#xf6;" horiz-adv-x="1017" 
d="M293 494q0 -146 79 -251.5t187 -105.5q78 0 131 66.5t53 165.5q0 140 -75 245t-176 105q-92 0 -145.5 -60.5t-53.5 -164.5zM565 864q157 0 271 -116t114 -277q0 -92 -39.5 -179t-104.5 -150.5t-152.5 -102.5t-180.5 -39q-101 0 -195.5 59.5t-152 156.5t-57.5 200
q0 123 65.5 221.5t188.5 161.5q53 27 124 46t119 19zM805 1112q-3 -49 -39 -80t-90 -31q-53 0 -95 33t-42 76q0 41 39.5 72.5t89.5 31.5q37 0 71 -17.5t56 -47.5q10 -13 10 -35v-2zM475 1120q-5 -50 -40 -80t-89 -30t-95.5 32.5t-41.5 75.5q0 41 39 73t90 32q67 0 119 -58
q18 -24 18 -41v-4z" />
    <glyph glyph-name="divide" unicode="&#xf7;" 
d="M16 780h990v-166h-990v166zM510 446q55 0 93 -37.5t38 -91.5q0 -55 -37.5 -93t-93.5 -38q-54 0 -91.5 38t-37.5 93q0 54 37.5 91.5t91.5 37.5zM510 1206q55 0 93 -37.5t38 -91.5t-38.5 -92.5t-92.5 -38.5t-91.5 38.5t-37.5 92.5t37.5 91.5t91.5 37.5z" />
    <glyph glyph-name="oslash" unicode="&#xf8;" horiz-adv-x="995" 
d="M399 203q53 -38 85.5 -52t70.5 -14q86 0 132 60.5t46 173.5q0 94 -18.5 149.5t-67.5 110.5zM362 244l248 426q-39 28 -67 38.5t-66 10.5q-86 0 -138 -64.5t-52 -171.5q0 -60 15.5 -108.5t59.5 -130.5zM705 836l61 104l43 -29l-59 -102q103 -59 148.5 -138t45.5 -202
q0 -92 -39.5 -179t-104.5 -150.5t-152.5 -102.5t-180.5 -39q-63 0 -162 43l-72 -123l-45 25l72 125q-111 102 -154 174t-43 159q0 122 59 223t163 158q69 37 144.5 60.5t131.5 23.5q45 0 144 -30z" />
    <glyph glyph-name="ugrave" unicode="&#xf9;" horiz-adv-x="929" 
d="M623 88q-157 -88 -295 -88q-64 0 -127 42.5t-103 113.5q-37 67 -37 182v407q0 58 29.5 88.5t85.5 30.5q77 0 108 -36.5t31 -127.5v-305q0 -134 23 -194t74 -60q85 0 145.5 67t60.5 159v344q0 153 127 153q57 0 88 -33.5t31 -95.5v-592q0 -66 -33 -104.5t-90 -38.5
q-41 0 -68.5 21t-49.5 67zM391 1239l88 -12q66 -8 101.5 -58.5t35.5 -138.5q0 -29 -30 -29q-31 0 -72.5 24.5t-159.5 111.5q-47 36 -47 63q0 15 21.5 27t50.5 12h12z" />
    <glyph glyph-name="uacute" unicode="&#xfa;" horiz-adv-x="929" 
d="M623 88q-157 -88 -295 -88q-64 0 -127 42.5t-103 113.5q-37 67 -37 182v407q0 58 29.5 88.5t85.5 30.5q77 0 108 -36.5t31 -127.5v-305q0 -134 23 -194t74 -60q85 0 145.5 67t60.5 159v344q0 153 127 153q57 0 88 -33.5t31 -95.5v-592q0 -66 -33 -104.5t-90 -38.5
q-41 0 -68.5 21t-49.5 67zM575 1139l-75 -56q-113 -82 -162 -82q-29 0 -29 31q0 96 36.5 146.5t105.5 52.5h43h20q100 0 100 -47q0 -14 -39 -45z" />
    <glyph glyph-name="ucircumflex" unicode="&#xfb;" horiz-adv-x="929" 
d="M623 88q-157 -88 -295 -88q-64 0 -127 42.5t-103 113.5q-37 67 -37 182v407q0 58 29.5 88.5t85.5 30.5q77 0 108 -36.5t31 -127.5v-305q0 -134 23 -194t74 -60q85 0 145.5 67t60.5 159v344q0 153 127 153q57 0 88 -33.5t31 -95.5v-592q0 -66 -33 -104.5t-90 -38.5
q-41 0 -68.5 21t-49.5 67zM463 1130q-60 -34 -90 -57q-60 -47 -80.5 -59.5t-38.5 -12.5q-15 0 -28 12t-13 27q0 19 19.5 56t50.5 75q34 49 82 74q52 25 98 25q104 0 166 -84l35 -45q49 -66 49 -92q0 -19 -13 -32t-32 -13q-35 0 -107 55q-13 9 -47 34t-51 37z" />
    <glyph glyph-name="udieresis" unicode="&#xfc;" horiz-adv-x="929" 
d="M623 88q-157 -88 -295 -88q-64 0 -127 42.5t-103 113.5q-37 67 -37 182v407q0 58 29.5 88.5t85.5 30.5q77 0 108 -36.5t31 -127.5v-305q0 -134 23 -194t74 -60q85 0 145.5 67t60.5 159v344q0 153 127 153q57 0 88 -33.5t31 -95.5v-592q0 -66 -33 -104.5t-90 -38.5
q-41 0 -68.5 21t-49.5 67zM760 1112q-3 -49 -39 -80t-90 -31q-53 0 -95 33t-42 76q0 41 39.5 72.5t89.5 31.5q37 0 71 -17.5t56 -47.5q10 -13 10 -35v-2zM430 1120q-5 -50 -40 -80t-89 -30t-95.5 32.5t-41.5 75.5q0 41 39 73t90 32q67 0 119 -58q18 -24 18 -41v-4z" />
    <glyph glyph-name="ydieresis" unicode="&#xff;" horiz-adv-x="968" 
d="M670 475l2 291q0 52 31 81.5t85 29.5q69 0 96 -37.5t27 -134.5v-250q0 -125 -31.5 -233.5t-101.5 -223.5q-42 -71 -56.5 -107.5t-14.5 -70.5q0 -45 22 -81.5t55 -43.5l47 -10q35 -9 56.5 -41.5t21.5 -75.5q0 -65 -46 -94t-150 -29q-118 0 -186 60t-68 163q0 66 27 156
t67 156q35 53 35 90q0 8 -6 9q-1 0 -2 0.5t-2 0.5q-13 0 -58 -27q-73 -43 -139 -43q-78 0 -149 47.5t-115 130.5q-40 72 -57 170t-17 248q0 161 30.5 224t108.5 63q59 0 91 -29.5t32 -83.5q0 -34 -6 -108q-6 -71 -6 -154q0 -177 45 -252.5t149 -75.5q180 0 183 285z
M774 1141q-3 -49 -39 -80t-90 -31q-53 0 -95 33t-42 76q0 41 39.5 72.5t89.5 31.5q37 0 71 -17.5t56 -47.5q10 -13 10 -35v-2zM444 1149q-5 -50 -40 -80.5t-89 -30.5t-95.5 33t-41.5 76q0 41 39 72.5t90 31.5q68 0 119 -57q18 -24 18 -41v-4z" />
    <glyph glyph-name="dotlessi" unicode="&#x131;" horiz-adv-x="403" 
d="M336 735v-629q0 -43 -36.5 -74.5t-86.5 -31.5q-59 0 -94 39.5t-35 105.5v590q0 54 35 87.5t92 33.5q56 0 90.5 -33.5t34.5 -87.5z" />
    <glyph glyph-name="OE" unicode="&#x152;" horiz-adv-x="1816" 
d="M850 588l-2 53q-3 171 -21 261t-65 173q-32 57 -81.5 92t-98.5 35q-120 0 -194.5 -118.5t-74.5 -307.5q0 -149 29 -287.5t78 -226.5q28 -50 72 -77t96 -27q48 0 98 20.5t82 54.5q45 48 63.5 127.5t18.5 227.5zM1004 1133q131 95 203 136t141 62q58 15 96 15
q121 0 207 -54t86 -129q0 -49 -29 -79.5t-74 -30.5q-36 0 -67 15t-121 75q-55 39 -92 39t-78 -25q-76 -45 -100 -94q-23 -41 -40.5 -111t-17.5 -121q0 -47 13 -59t67 -12h418q104 0 104 -90q0 -55 -33.5 -80t-107.5 -25h-387q-33 0 -54.5 -14.5t-21.5 -36.5q0 -32 25.5 -105
t58.5 -133q35 -68 90 -105.5t119 -37.5q48 0 90 19.5t141 87.5q48 34 80 34q22 0 39 -16.5t17 -38.5q0 -51 -136 -137l-51 -33q-75 -47 -196 -47q-135 0 -225 29t-152 92q-18 18 -72 84q-65 -60 -100 -88.5t-84 -57.5q-59 -35 -105.5 -48t-105.5 -13q-224 0 -361 182
t-137 480q0 183 46.5 303.5t152.5 214.5q82 73 177.5 121.5t156.5 48.5q34 0 88.5 -12t95.5 -27q76 -30 121 -64.5t115 -113.5z" />
    <glyph glyph-name="oe" unicode="&#x153;" horiz-adv-x="1523" 
d="M979 463l199 121q22 11 22 30q0 41 -53 70q-35 18 -70 18q-66 0 -114 -60t-48 -144q0 -24 5.5 -40t13.5 -16q10 0 45 21zM274 494q0 -145 80 -251t189 -106q78 0 130 66t52 166q0 140 -75 245t-175 105q-92 0 -146.5 -60.5t-54.5 -164.5zM850 733q103 78 170 109.5
t133 31.5q45 0 90 -15.5t70 -39.5l78 -78l51 -36q39 -25 39 -62q0 -27 -17 -37q-1 -1 -5.5 -4t-15.5 -9.5t-22 -14.5l-381 -234q-51 -34 -51 -53q0 -27 39 -76q58 -74 141 -74q51 0 103 31l82 59q44 27 69 27t39.5 -12.5t14.5 -34.5q0 -35 -56.5 -85t-150.5 -97
q-63 -29 -158 -29q-102 0 -173 29t-161 108q-111 -79 -180.5 -108t-142.5 -29q-101 0 -195 59.5t-151.5 157.5t-57.5 203q0 112 57 206t162 154q143 84 291 84q72 0 136 -29t153 -102z" />
    <glyph glyph-name="Ydieresis" unicode="&#x178;" horiz-adv-x="1003" 
d="M526 899l248 361q36 54 61.5 73t57.5 19q41 0 70.5 -28.5t29.5 -68.5q0 -59 -49 -133l-309 -450v-535q0 -137 -139 -137q-136 0 -136 162v500l-321 503q-33 51 -33 92q0 49 38 84t89 35q86 0 148 -94zM797 1624q-3 -49 -39 -80t-90 -31q-53 0 -95.5 33.5t-42.5 75.5
q0 41 39.5 72.5t89.5 31.5q37 0 71 -17.5t56 -47.5q11 -15 11 -35v-2zM467 1632q-5 -50 -40 -80t-89 -30t-95.5 32.5t-41.5 75.5q0 41 39 73t90 32q67 0 119 -58q18 -24 18 -41v-4z" />
    <glyph glyph-name="florin" unicode="&#x192;" horiz-adv-x="1064" 
d="M854 893l-25 -131h-200l-121 -666q-22 -117 -44.5 -177.5t-62.5 -104.5q-45 -50 -109 -72.5t-163 -22.5q-37 0 -117 9l29 166q41 -5 68 -5q61 0 93 19.5t52.5 71t40.5 161.5l111 621h-177l25 131h174l41 219q34 189 117 266.5t252 77.5q49 0 133 -8l-29 -166q-67 6 -86 6
q-75 0 -112 -42t-56 -146l-37 -207h203z" />
    <glyph glyph-name="circumflex" unicode="&#x2c6;" horiz-adv-x="552" 
d="M276 1182q-55 -31 -90 -58q-60 -47 -80 -59t-38 -12q-15 0 -28 12t-13 27q0 19 19.5 56t49.5 75q33 48 82 73q52 25 98 25q104 0 166 -84l35 -45q49 -66 49 -92q0 -19 -13 -32t-32 -13q-34 0 -106 55q-12 9 -46 33.5t-53 38.5z" />
    <glyph glyph-name="ring" unicode="&#x2da;" horiz-adv-x="452" 
d="M311 1192v2q0 10 -11.5 25t-27.5 26q-24 15 -49 15q-32 0 -58 -21t-26 -47q0 -28 27 -50t61 -22q35 0 58 20t26 52zM426 1196q-6 -75 -59.5 -120.5t-135.5 -45.5q-80 0 -142 50t-62 114q0 62 59 110t135 48q101 0 176 -90q29 -37 29 -60v-6z" />
    <glyph glyph-name="tilde" unicode="&#x2dc;" horiz-adv-x="598" 
d="M248 1294l74 -20q21 -6 43 -6q37 0 69 14l39 16q21 9 37 9q23 0 42 -21t19 -47q0 -17 -11.5 -31.5t-41.5 -38.5l-45 -34q-20 -17 -53 -17q-51 0 -113 27q-63 31 -80 31q-19 0 -41 -11q-90 -41 -110 -41q-19 0 -33 25q-16 29 -16 51q0 41 57 72q58 33 109 33q18 0 55 -11z
" />
    <glyph glyph-name="endash" unicode="&#x2013;" horiz-adv-x="1175" 
d="M973 494h-780q-51 0 -82 29.5t-31 78.5q0 54 36 86.5t95 32.5h713q97 0 139.5 -27t42.5 -88q0 -53 -35.5 -82.5t-97.5 -29.5z" />
    <glyph glyph-name="emdash" unicode="&#x2014;" horiz-adv-x="1517" 
d="M1313 494h-1123q-50 0 -80 29.5t-30 78.5q0 54 36 86.5t95 32.5h1053q97 0 139.5 -27t42.5 -88q0 -54 -35 -83t-98 -29z" />
    <glyph glyph-name="quoteleft" unicode="&#x2018;" horiz-adv-x="407" 
d="M229 1313l-4 -103q0 -16 25 -30l43 -23q23 -12 37 -36.5t14 -51.5q0 -46 -35.5 -77t-89.5 -31q-71 0 -113.5 41.5t-42.5 113.5q0 71 48 189q8 20 20 41q18 18 43 18q22 0 38.5 -15.5t16.5 -35.5z" />
    <glyph glyph-name="quoteright" unicode="&#x2019;" horiz-adv-x="407" 
d="M180 1014l4 100q0 18 -26 31l-41 22q-23 12 -38.5 37t-15.5 51q0 46 36.5 77.5t90.5 31.5q70 0 112 -42t42 -112q0 -80 -45 -188q-14 -32 -23 -43q-14 -18 -40 -18q-22 0 -39 15.5t-17 35.5v2z" />
    <glyph glyph-name="quotedblleft" unicode="&#x201c;" horiz-adv-x="745" 
d="M229 1313l-4 -103q0 -16 25 -30l43 -23q23 -12 37 -36.5t14 -51.5q0 -46 -35.5 -77t-89.5 -31q-71 0 -113.5 42.5t-42.5 112.5q0 71 48 189q8 20 20 41q18 18 43 18q22 0 38.5 -15.5t16.5 -35.5zM567 1313l-4 -103q0 -16 27 -30l41 -23q23 -12 37 -36.5t14 -51.5
q0 -46 -35.5 -77t-89.5 -31q-70 0 -112 42t-42 113q0 76 46 189q8 23 22 41t41 18q22 0 38.5 -15.5t16.5 -35.5z" />
    <glyph glyph-name="quotedblright" unicode="&#x201d;" horiz-adv-x="745" 
d="M518 1014l4 100q0 17 -24 31l-43 22q-23 12 -37.5 36.5t-14.5 51.5q0 46 35.5 77.5t89.5 31.5q70 0 112 -42t42 -112q0 -80 -45 -188q-6 -18 -21 -43q-18 -18 -43 -18q-22 0 -38.5 15.5t-16.5 35.5v2zM180 1014l4 100q0 18 -26 31l-41 22q-23 12 -38.5 37t-15.5 51
q0 46 36.5 77.5t90.5 31.5q70 0 112 -42t42 -112q0 -80 -45 -188q-14 -32 -23 -43q-14 -18 -40 -18q-22 0 -39 15.5t-17 35.5v2z" />
    <glyph glyph-name="quotedblbase" unicode="&#x201e;" horiz-adv-x="745" 
d="M180 -115l4 103q0 15 -26 28l-41 21q-23 12 -38.5 37t-15.5 53q0 46 36.5 76t90.5 30q71 0 112.5 -41.5t41.5 -111.5q0 -75 -45 -186q-14 -32 -23 -41q-13 -19 -40 -19q-22 0 -39 15t-17 36zM518 -115l4 103q0 14 -24 28l-43 21q-23 12 -37.5 37t-14.5 53q0 46 35.5 76
t89.5 30q71 0 112.5 -41.5t41.5 -111.5q0 -75 -45 -186q-8 -23 -21 -41q-16 -19 -43 -19q-22 0 -38.5 15t-16.5 36z" />
    <glyph glyph-name="dagger" unicode="&#x2020;" horiz-adv-x="1054" 
d="M999 969v-189h-366v-1081h-213v1081h-365v189h365v395h213v-395h366z" />
    <glyph glyph-name="daggerdbl" unicode="&#x2021;" horiz-adv-x="1054" 
d="M999 997v-184h-366v-559h366v-182h-366v-371h-211v369h-367v184h365v559h-365v184h365v367h213v-367h366z" />
    <glyph glyph-name="bullet" unicode="&#x2022;" horiz-adv-x="851" 
d="M426 891q83 0 141 -59t58 -142t-58 -142t-141 -59t-142 59t-59 142t59 142t142 59z" />
    <glyph glyph-name="ellipsis" unicode="&#x2026;" horiz-adv-x="1175" 
d="M950 227q62 0 107 -36t45 -85q0 -43 -40 -74.5t-93 -31.5q-59 0 -101.5 35t-42.5 84q0 43 38 75.5t87 32.5zM575 227q61 0 105.5 -35.5t44.5 -85.5q0 -43 -40 -74.5t-93 -31.5q-59 0 -101 35t-42 84q0 43 37.5 75.5t88.5 32.5zM199 227q61 0 105 -35.5t44 -85.5
q0 -43 -39.5 -74.5t-93.5 -31.5q-59 0 -101 35t-42 84q0 43 38 75.5t89 32.5z" />
    <glyph glyph-name="perthousand" unicode="&#x2030;" horiz-adv-x="2482" 
d="M2046 580q-71 0 -112.5 -50t-41.5 -137q0 -114 63.5 -199t149.5 -85q61 0 103.5 51t42.5 125q0 117 -61.5 206t-143.5 89zM1229 580q-71 0 -112.5 -50t-41.5 -137q0 -114 64.5 -199t150.5 -85q60 0 103 51.5t43 124.5q0 117 -62.5 206t-144.5 89zM399 1245
q-71 0 -112 -50t-41 -136q0 -115 64.5 -200t150.5 -85q60 0 102.5 51t42.5 123q0 118 -62.5 207.5t-144.5 89.5zM1708 328q15 213 172 299q60 33 127 54t115 21q114 0 205.5 -101.5t91.5 -227.5q0 -151 -115.5 -264t-269.5 -113q-82 0 -162 55.5t-131 147.5q-13 26 -23 65
t-10 64zM891 328q15 211 172 299q61 33 128.5 54t113.5 21q115 0 206 -101.5t91 -227.5q0 -151 -115.5 -264t-267.5 -113q-82 0 -163 55.5t-130 147.5q-14 25 -24.5 64t-10.5 65zM61 993q15 213 172 299q61 33 127.5 53.5t114.5 20.5q115 0 206 -101t91 -229
q0 -149 -115.5 -263t-267.5 -114q-83 0 -163 56.5t-130 148.5q-13 23 -24 63t-11 66zM614 268l416 1041q9 24 23.5 38.5t29.5 14.5q21 0 34 -14.5t13 -38.5q0 -18 -6 -33l-413 -1040l-82 -181q-24 -55 -51 -55q-15 0 -25 10t-10 27q0 19 10 49z" />
    <glyph glyph-name="guilsinglleft" unicode="&#x2039;" horiz-adv-x="649" 
d="M82 442l317 441q17 20 50 20q41 0 72.5 -28t31.5 -64q0 -16 -10 -29l-248 -340l248 -329q10 -13 10 -29q0 -35 -32 -62.5t-72 -27.5q-35 0 -50 18z" />
    <glyph glyph-name="guilsinglright" unicode="&#x203a;" horiz-adv-x="649" 
d="M569 442l-319 -430q-15 -18 -49 -18q-40 0 -72.5 27.5t-32.5 62.5q0 16 10 29l248 329l-248 340q-10 13 -10 29q0 35 32.5 63.5t72.5 28.5q32 0 49 -20z" />
    <glyph glyph-name="fraction" unicode="&#x2044;" horiz-adv-x="389" 
d="M647 1339l-770 -1339h-133l772 1339h131z" />
    <glyph glyph-name="trademark" unicode="&#x2122;" horiz-adv-x="1765" 
d="M696 1364v-131h-258v-686h-162v686h-258v131h678zM1698 1364v-817h-144v678l-266 -680h-88l-258 680v-678h-147v817h235l215 -541l223 541h230z" />
    </font>
</defs>
</svg>
